<svg xmlns="http://www.w3.org/2000/svg" width="808" height="12" viewBox="0 0 808 12">
    <path fill="#0D76E0" fill-rule="evenodd" d="M6.707 1.05l4.243 4.243a1 1 0 0 1 0 1.414L6.707 10.95a1 1 0 0 1-1.414 0L1.05 6.707a1 1 0 0 1 0-1.414L5.293 1.05a1 1 0 0 1 1.414 0zm10.657 0l4.243 4.243a1 1 0 0 1 0 1.414l-4.243 4.243a1 1 0 0 1-1.414 0l-4.243-4.243a1 1 0 0 1 0-1.414L15.95 1.05a1 1 0 0 1 1.414 0zm11 0l4.243 4.243a1 1 0 0 1 0 1.414l-4.243 4.243a1 1 0 0 1-1.414 0l-4.243-4.243a1 1 0 0 1 0-1.414L26.95 1.05a1 1 0 0 1 1.414 0zm12 0l4.243 4.243a1 1 0 0 1 0 1.414l-4.243 4.243a1 1 0 0 1-1.414 0l-4.243-4.243a1 1 0 0 1 0-1.414L38.95 1.05a1 1 0 0 1 1.414 0zm11 0l4.243 4.243a1 1 0 0 1 0 1.414l-4.243 4.243a1 1 0 0 1-1.414 0l-4.243-4.243a1 1 0 0 1 0-1.414L49.95 1.05a1 1 0 0 1 1.414 0zm11 0l4.243 4.243a1 1 0 0 1 0 1.414l-4.243 4.243a1 1 0 0 1-1.414 0l-4.243-4.243a1 1 0 0 1 0-1.414L60.95 1.05a1 1 0 0 1 1.414 0zm11 0l4.243 4.243a1 1 0 0 1 0 1.414l-4.243 4.243a1 1 0 0 1-1.414 0l-4.243-4.243a1 1 0 0 1 0-1.414L71.95 1.05a1 1 0 0 1 1.414 0zm11 0l4.243 4.243a1 1 0 0 1 0 1.414l-4.243 4.243a1 1 0 0 1-1.414 0l-4.243-4.243a1 1 0 0 1 0-1.414L82.95 1.05a1 1 0 0 1 1.414 0zm11 0l4.243 4.243a1 1 0 0 1 0 1.414l-4.243 4.243a1 1 0 0 1-1.414 0l-4.243-4.243a1 1 0 0 1 0-1.414L93.95 1.05a1 1 0 0 1 1.414 0zm11 0l4.243 4.243a1 1 0 0 1 0 1.414l-4.243 4.243a1 1 0 0 1-1.414 0l-4.243-4.243a1 1 0 0 1 0-1.414l4.243-4.243a1 1 0 0 1 1.414 0zm11 0l4.243 4.243a1 1 0 0 1 0 1.414l-4.243 4.243a1 1 0 0 1-1.414 0l-4.243-4.243a1 1 0 0 1 0-1.414l4.243-4.243a1 1 0 0 1 1.414 0zm11 0l4.243 4.243a1 1 0 0 1 0 1.414l-4.243 4.243a1 1 0 0 1-1.414 0l-4.243-4.243a1 1 0 0 1 0-1.414l4.243-4.243a1 1 0 0 1 1.414 0zm11 0l4.243 4.243a1 1 0 0 1 0 1.414l-4.243 4.243a1 1 0 0 1-1.414 0l-4.243-4.243a1 1 0 0 1 0-1.414l4.243-4.243a1 1 0 0 1 1.414 0zm11 0l4.243 4.243a1 1 0 0 1 0 1.414l-4.243 4.243a1 1 0 0 1-1.414 0l-4.243-4.243a1 1 0 0 1 0-1.414l4.243-4.243a1 1 0 0 1 1.414 0zm11 0l4.243 4.243a1 1 0 0 1 0 1.414l-4.243 4.243a1 1 0 0 1-1.414 0l-4.243-4.243a1 1 0 0 1 0-1.414l4.243-4.243a1 1 0 0 1 1.414 0zm11 0l4.243 4.243a1 1 0 0 1 0 1.414l-4.243 4.243a1 1 0 0 1-1.414 0l-4.243-4.243a1 1 0 0 1 0-1.414l4.243-4.243a1 1 0 0 1 1.414 0zm11 0l4.243 4.243a1 1 0 0 1 0 1.414l-4.243 4.243a1 1 0 0 1-1.414 0l-4.243-4.243a1 1 0 0 1 0-1.414l4.243-4.243a1 1 0 0 1 1.414 0zm12 0l4.243 4.243a1 1 0 0 1 0 1.414l-4.243 4.243a1 1 0 0 1-1.414 0l-4.243-4.243a1 1 0 0 1 0-1.414l4.243-4.243a1 1 0 0 1 1.414 0zm11 0l4.243 4.243a1 1 0 0 1 0 1.414l-4.243 4.243a1 1 0 0 1-1.414 0l-4.243-4.243a1 1 0 0 1 0-1.414l4.243-4.243a1 1 0 0 1 1.414 0zm11 0l4.243 4.243a1 1 0 0 1 0 1.414l-4.243 4.243a1 1 0 0 1-1.414 0l-4.243-4.243a1 1 0 0 1 0-1.414l4.243-4.243a1 1 0 0 1 1.414 0zm11 0l4.243 4.243a1 1 0 0 1 0 1.414l-4.243 4.243a1 1 0 0 1-1.414 0l-4.243-4.243a1 1 0 0 1 0-1.414l4.243-4.243a1 1 0 0 1 1.414 0zm11 0l4.243 4.243a1 1 0 0 1 0 1.414l-4.243 4.243a1 1 0 0 1-1.414 0l-4.243-4.243a1 1 0 0 1 0-1.414l4.243-4.243a1 1 0 0 1 1.414 0zm11 0l4.243 4.243a1 1 0 0 1 0 1.414l-4.243 4.243a1 1 0 0 1-1.414 0l-4.243-4.243a1 1 0 0 1 0-1.414l4.243-4.243a1 1 0 0 1 1.414 0zm11 0l4.243 4.243a1 1 0 0 1 0 1.414l-4.243 4.243a1 1 0 0 1-1.414 0l-4.243-4.243a1 1 0 0 1 0-1.414l4.243-4.243a1 1 0 0 1 1.414 0zm11 0l4.243 4.243a1 1 0 0 1 0 1.414l-4.243 4.243a1 1 0 0 1-1.414 0l-4.243-4.243a1 1 0 0 1 0-1.414l4.243-4.243a1 1 0 0 1 1.414 0zm11 0l4.243 4.243a1 1 0 0 1 0 1.414l-4.243 4.243a1 1 0 0 1-1.414 0l-4.243-4.243a1 1 0 0 1 0-1.414l4.243-4.243a1 1 0 0 1 1.414 0zm11 0l4.243 4.243a1 1 0 0 1 0 1.414l-4.243 4.243a1 1 0 0 1-1.414 0l-4.243-4.243a1 1 0 0 1 0-1.414l4.243-4.243a1 1 0 0 1 1.414 0zm11 0l4.243 4.243a1 1 0 0 1 0 1.414l-4.243 4.243a1 1 0 0 1-1.414 0l-4.243-4.243a1 1 0 0 1 0-1.414l4.243-4.243a1 1 0 0 1 1.414 0zm11 0l4.243 4.243a1 1 0 0 1 0 1.414l-4.243 4.243a1 1 0 0 1-1.414 0l-4.243-4.243a1 1 0 0 1 0-1.414l4.243-4.243a1 1 0 0 1 1.414 0zm11 0l4.243 4.243a1 1 0 0 1 0 1.414l-4.243 4.243a1 1 0 0 1-1.414 0l-4.243-4.243a1 1 0 0 1 0-1.414l4.243-4.243a1 1 0 0 1 1.414 0zm11 0l4.243 4.243a1 1 0 0 1 0 1.414l-4.243 4.243a1 1 0 0 1-1.414 0l-4.243-4.243a1 1 0 0 1 0-1.414l4.243-4.243a1 1 0 0 1 1.414 0zm11 0l4.243 4.243a1 1 0 0 1 0 1.414l-4.243 4.243a1 1 0 0 1-1.414 0l-4.243-4.243a1 1 0 0 1 0-1.414l4.243-4.243a1 1 0 0 1 1.414 0zm12 0l4.243 4.243a1 1 0 0 1 0 1.414l-4.243 4.243a1 1 0 0 1-1.414 0l-4.243-4.243a1 1 0 0 1 0-1.414l4.243-4.243a1 1 0 0 1 1.414 0zm11 0l4.243 4.243a1 1 0 0 1 0 1.414l-4.243 4.243a1 1 0 0 1-1.414 0l-4.243-4.243a1 1 0 0 1 0-1.414l4.243-4.243a1 1 0 0 1 1.414 0zm11 0l4.243 4.243a1 1 0 0 1 0 1.414l-4.243 4.243a1 1 0 0 1-1.414 0l-4.243-4.243a1 1 0 0 1 0-1.414l4.243-4.243a1 1 0 0 1 1.414 0zm11 0l4.243 4.243a1 1 0 0 1 0 1.414l-4.243 4.243a1 1 0 0 1-1.414 0l-4.243-4.243a1 1 0 0 1 0-1.414l4.243-4.243a1 1 0 0 1 1.414 0zm11 0l4.243 4.243a1 1 0 0 1 0 1.414l-4.243 4.243a1 1 0 0 1-1.414 0l-4.243-4.243a1 1 0 0 1 0-1.414l4.243-4.243a1 1 0 0 1 1.414 0zm11 0l4.243 4.243a1 1 0 0 1 0 1.414l-4.243 4.243a1 1 0 0 1-1.414 0l-4.243-4.243a1 1 0 0 1 0-1.414l4.243-4.243a1 1 0 0 1 1.414 0zm11 0l4.243 4.243a1 1 0 0 1 0 1.414l-4.243 4.243a1 1 0 0 1-1.414 0l-4.243-4.243a1 1 0 0 1 0-1.414l4.243-4.243a1 1 0 0 1 1.414 0zm11 0l4.243 4.243a1 1 0 0 1 0 1.414l-4.243 4.243a1 1 0 0 1-1.414 0l-4.243-4.243a1 1 0 0 1 0-1.414l4.243-4.243a1 1 0 0 1 1.414 0zm11 0l4.243 4.243a1 1 0 0 1 0 1.414l-4.243 4.243a1 1 0 0 1-1.414 0l-4.243-4.243a1 1 0 0 1 0-1.414l4.243-4.243a1 1 0 0 1 1.414 0zm11 0l4.243 4.243a1 1 0 0 1 0 1.414l-4.243 4.243a1 1 0 0 1-1.414 0l-4.243-4.243a1 1 0 0 1 0-1.414l4.243-4.243a1 1 0 0 1 1.414 0zm11 0l4.243 4.243a1 1 0 0 1 0 1.414l-4.243 4.243a1 1 0 0 1-1.414 0l-4.243-4.243a1 1 0 0 1 0-1.414l4.243-4.243a1 1 0 0 1 1.414 0zm11 0l4.243 4.243a1 1 0 0 1 0 1.414l-4.243 4.243a1 1 0 0 1-1.414 0l-4.243-4.243a1 1 0 0 1 0-1.414l4.243-4.243a1 1 0 0 1 1.414 0zm11 0l4.243 4.243a1 1 0 0 1 0 1.414l-4.243 4.243a1 1 0 0 1-1.414 0l-4.243-4.243a1 1 0 0 1 0-1.414l4.243-4.243a1 1 0 0 1 1.414 0zm11 0l4.243 4.243a1 1 0 0 1 0 1.414l-4.243 4.243a1 1 0 0 1-1.414 0l-4.243-4.243a1 1 0 0 1 0-1.414l4.243-4.243a1 1 0 0 1 1.414 0zm12 0l4.243 4.243a1 1 0 0 1 0 1.414l-4.243 4.243a1 1 0 0 1-1.414 0l-4.243-4.243a1 1 0 0 1 0-1.414l4.243-4.243a1 1 0 0 1 1.414 0zm11 0l4.243 4.243a1 1 0 0 1 0 1.414l-4.243 4.243a1 1 0 0 1-1.414 0l-4.243-4.243a1 1 0 0 1 0-1.414l4.243-4.243a1 1 0 0 1 1.414 0zm11 0l4.243 4.243a1 1 0 0 1 0 1.414l-4.243 4.243a1 1 0 0 1-1.414 0l-4.243-4.243a1 1 0 0 1 0-1.414l4.243-4.243a1 1 0 0 1 1.414 0zm11 0l4.243 4.243a1 1 0 0 1 0 1.414l-4.243 4.243a1 1 0 0 1-1.414 0l-4.243-4.243a1 1 0 0 1 0-1.414l4.243-4.243a1 1 0 0 1 1.414 0zm11 0l4.243 4.243a1 1 0 0 1 0 1.414l-4.243 4.243a1 1 0 0 1-1.414 0l-4.243-4.243a1 1 0 0 1 0-1.414l4.243-4.243a1 1 0 0 1 1.414 0zm11 0l4.243 4.243a1 1 0 0 1 0 1.414l-4.243 4.243a1 1 0 0 1-1.414 0l-4.243-4.243a1 1 0 0 1 0-1.414l4.243-4.243a1 1 0 0 1 1.414 0zm11 0l4.243 4.243a1 1 0 0 1 0 1.414l-4.243 4.243a1 1 0 0 1-1.414 0l-4.243-4.243a1 1 0 0 1 0-1.414l4.243-4.243a1 1 0 0 1 1.414 0zm11 0l4.243 4.243a1 1 0 0 1 0 1.414l-4.243 4.243a1 1 0 0 1-1.414 0l-4.243-4.243a1 1 0 0 1 0-1.414l4.243-4.243a1 1 0 0 1 1.414 0zm11 0l4.243 4.243a1 1 0 0 1 0 1.414l-4.243 4.243a1 1 0 0 1-1.414 0l-4.243-4.243a1 1 0 0 1 0-1.414l4.243-4.243a1 1 0 0 1 1.414 0zm11 0l4.243 4.243a1 1 0 0 1 0 1.414l-4.243 4.243a1 1 0 0 1-1.414 0l-4.243-4.243a1 1 0 0 1 0-1.414l4.243-4.243a1 1 0 0 1 1.414 0zm11 0l4.243 4.243a1 1 0 0 1 0 1.414l-4.243 4.243a1 1 0 0 1-1.414 0l-4.243-4.243a1 1 0 0 1 0-1.414l4.243-4.243a1 1 0 0 1 1.414 0zm11 0l4.243 4.243a1 1 0 0 1 0 1.414l-4.243 4.243a1 1 0 0 1-1.414 0l-4.243-4.243a1 1 0 0 1 0-1.414l4.243-4.243a1 1 0 0 1 1.414 0zm11 0l4.243 4.243a1 1 0 0 1 0 1.414l-4.243 4.243a1 1 0 0 1-1.414 0l-4.243-4.243a1 1 0 0 1 0-1.414l4.243-4.243a1 1 0 0 1 1.414 0zm11 0l4.243 4.243a1 1 0 0 1 0 1.414l-4.243 4.243a1 1 0 0 1-1.414 0l-4.243-4.243a1 1 0 0 1 0-1.414l4.243-4.243a1 1 0 0 1 1.414 0zm12 0l4.243 4.243a1 1 0 0 1 0 1.414l-4.243 4.243a1 1 0 0 1-1.414 0l-4.243-4.243a1 1 0 0 1 0-1.414l4.243-4.243a1 1 0 0 1 1.414 0zm11 0l4.243 4.243a1 1 0 0 1 0 1.414l-4.243 4.243a1 1 0 0 1-1.414 0l-4.243-4.243a1 1 0 0 1 0-1.414l4.243-4.243a1 1 0 0 1 1.414 0zm11 0l4.243 4.243a1 1 0 0 1 0 1.414l-4.243 4.243a1 1 0 0 1-1.414 0l-4.243-4.243a1 1 0 0 1 0-1.414l4.243-4.243a1 1 0 0 1 1.414 0zm11 0l4.243 4.243a1 1 0 0 1 0 1.414l-4.243 4.243a1 1 0 0 1-1.414 0l-4.243-4.243a1 1 0 0 1 0-1.414l4.243-4.243a1 1 0 0 1 1.414 0zm11 0l4.243 4.243a1 1 0 0 1 0 1.414l-4.243 4.243a1 1 0 0 1-1.414 0l-4.243-4.243a1 1 0 0 1 0-1.414l4.243-4.243a1 1 0 0 1 1.414 0zm11 0l4.243 4.243a1 1 0 0 1 0 1.414l-4.243 4.243a1 1 0 0 1-1.414 0l-4.243-4.243a1 1 0 0 1 0-1.414l4.243-4.243a1 1 0 0 1 1.414 0zm11 0l4.243 4.243a1 1 0 0 1 0 1.414l-4.243 4.243a1 1 0 0 1-1.414 0l-4.243-4.243a1 1 0 0 1 0-1.414l4.243-4.243a1 1 0 0 1 1.414 0zm11 0l4.243 4.243a1 1 0 0 1 0 1.414l-4.243 4.243a1 1 0 0 1-1.414 0l-4.243-4.243a1 1 0 0 1 0-1.414l4.243-4.243a1 1 0 0 1 1.414 0zm11 0l4.243 4.243a1 1 0 0 1 0 1.414l-4.243 4.243a1 1 0 0 1-1.414 0l-4.243-4.243a1 1 0 0 1 0-1.414l4.243-4.243a1 1 0 0 1 1.414 0zm11 0l4.243 4.243a1 1 0 0 1 0 1.414l-4.243 4.243a1 1 0 0 1-1.414 0l-4.243-4.243a1 1 0 0 1 0-1.414l4.243-4.243a1 1 0 0 1 1.414 0zm11 0l4.243 4.243a1 1 0 0 1 0 1.414l-4.243 4.243a1 1 0 0 1-1.414 0l-4.243-4.243a1 1 0 0 1 0-1.414l4.243-4.243a1 1 0 0 1 1.414 0zm11 0l4.243 4.243a1 1 0 0 1 0 1.414l-4.243 4.243a1 1 0 0 1-1.414 0l-4.243-4.243a1 1 0 0 1 0-1.414l4.243-4.243a1 1 0 0 1 1.414 0zm11 0l4.243 4.243a1 1 0 0 1 0 1.414l-4.243 4.243a1 1 0 0 1-1.414 0l-4.243-4.243a1 1 0 0 1 0-1.414l4.243-4.243a1 1 0 0 1 1.414 0z"/>
</svg>
