<svg xmlns="http://www.w3.org/2000/svg" xmlns:xlink="http://www.w3.org/1999/xlink" width="827" height="470" viewBox="0 0 827 470">
    <defs>
        <path id="a" d="M253.21.969L711 191.617 506.219 469.051.598 191.617z"/>
        <linearGradient id="b" x1="30.622%" x2="73.247%" y1="42.689%" y2="63.117%">
            <stop offset="0%" stop-color="#B6E7FE"/>
            <stop offset="100%" stop-color="#68BDED"/>
        </linearGradient>
        <linearGradient id="d" x1="6.609%" x2="91.339%" y1="50%" y2="50%">
            <stop offset="0%" stop-color="#79C6F1"/>
            <stop offset="100%" stop-color="#3FA3DB"/>
        </linearGradient>
        <linearGradient id="e" x1="2.114%" x2="86.589%" y1="42.864%" y2="58.868%">
            <stop offset="0%" stop-color="#1B9815"/>
            <stop offset="100%" stop-color="#157512"/>
        </linearGradient>
    </defs>
    <g fill="none" fill-rule="evenodd">
        <g transform="translate(0 1)">
            <mask id="c" fill="#fff">
                <use xlink:href="#a"/>
            </mask>
            <use fill="#E5F3FB" xlink:href="#a"/>
            <path fill="url(#b)" d="M599.959 279.312A34.6 34.6 0 0 1 600 281c0 15.464-10.297 28-23 28-10.717 0-19.723-8.924-22.276-21.001-8.504-.06-15.899-2.931-19.795-7.157-2.761.104-5.575.158-8.429.158-37.28 0-67.5-9.178-67.5-20.5 0-6.894 11.204-12.992 28.382-16.709-.894-1.494-1.382-3.108-1.382-4.791 0-7.732 10.297-14 23-14s23 6.268 23 14c0 .358-.022.714-.066 1.065 8.75.212 17.028.93 24.518 2.059C559.083 232.408 572.878 225 589.5 225c18.502 0 33.5 9.178 33.5 20.5 0 6.532-4.993 12.35-12.77 16.105 1.14 1.66 1.77 3.483 1.77 5.395 0 5.317-4.87 9.941-12.041 12.312z" mask="url(#c)"/>
            <path fill="url(#d)" d="M600 270.028c-.994-1.807-2.754-3.771-5.57-3.028-2.818.743-3.163 2.515-4.93 2.515s-4.002.402-4.44 2.005c-.44 1.603 3.327 6.628 6.348 5.708 3.021-.92.688-5.12 3.021-5.12s3.071 1.634 4.673 1.036c1.602-.598 1.892-1.308.898-3.116z" mask="url(#c)"/>
            <path fill="#CDE7F5" d="M255.887-20v91.18l417.078 183 61.535-87z" mask="url(#c)"/>
            <path fill="#B7DCF1" d="M255.887 71.18V-20L-10 184.18l71.727 42.507z" mask="url(#c)"/>
        </g>
        <path fill="#E00D15" d="M55.874 159.252l1.754 5.738a1 1 0 0 1-.664 1.249l-5.738 1.754a1 1 0 0 1-1.249-.664l-1.754-5.738a1 1 0 0 1 .664-1.248l5.738-1.754a1 1 0 0 1 1.249.663zm9.41 5.004l1.753 5.737a1 1 0 0 1-.664 1.249l-5.737 1.754a1 1 0 0 1-1.25-.664l-1.753-5.737a1 1 0 0 1 .664-1.25l5.737-1.753a1 1 0 0 1 1.25.664zm9.712 5.164l1.754 5.738a1 1 0 0 1-.664 1.248l-5.738 1.754a1 1 0 0 1-1.249-.663l-1.754-5.738a1 1 0 0 1 .664-1.249l5.738-1.754a1 1 0 0 1 1.249.664zm10.595 5.633l1.754 5.738a1 1 0 0 1-.664 1.249l-5.738 1.754a1 1 0 0 1-1.248-.664l-1.755-5.738a1 1 0 0 1 .664-1.248l5.738-1.755a1 1 0 0 1 1.249.664zm9.712 5.165l1.755 5.737a1 1 0 0 1-.664 1.25l-5.738 1.753a1 1 0 0 1-1.249-.664l-1.754-5.737a1 1 0 0 1 .664-1.25l5.738-1.753a1 1 0 0 1 1.248.664zm9.713 5.164l1.754 5.738a1 1 0 0 1-.664 1.248l-5.738 1.754a1 1 0 0 1-1.248-.663l-1.755-5.738a1 1 0 0 1 .664-1.249l5.738-1.754a1 1 0 0 1 1.249.664zm9.712 5.164l1.754 5.738a1 1 0 0 1-.664 1.248l-5.737 1.755a1 1 0 0 1-1.249-.664l-1.754-5.738a1 1 0 0 1 .664-1.249l5.738-1.754a1 1 0 0 1 1.248.664zm9.713 5.164l1.754 5.738a1 1 0 0 1-.664 1.249l-5.738 1.754a1 1 0 0 1-1.249-.664l-1.754-5.738a1 1 0 0 1 .664-1.249l5.738-1.754a1 1 0 0 1 1.249.664zm9.712 5.164l1.754 5.738a1 1 0 0 1-.664 1.249l-5.737 1.754a1 1 0 0 1-1.25-.664l-1.753-5.738a1 1 0 0 1 .664-1.248l5.737-1.755a1 1 0 0 1 1.249.664zm9.712 5.164l1.755 5.738a1 1 0 0 1-.664 1.249l-5.738 1.754a1 1 0 0 1-1.249-.664l-1.754-5.738a1 1 0 0 1 .664-1.248l5.738-1.754a1 1 0 0 1 1.248.663zm9.713 5.165l1.754 5.738a1 1 0 0 1-.664 1.248l-5.738 1.754a1 1 0 0 1-1.248-.664l-1.755-5.737a1 1 0 0 1 .664-1.249l5.738-1.754a1 1 0 0 1 1.249.664zm9.712 5.164l1.755 5.738a1 1 0 0 1-.664 1.248l-5.738 1.755a1 1 0 0 1-1.249-.664l-1.754-5.738a1 1 0 0 1 .664-1.249l5.738-1.754a1 1 0 0 1 1.248.664zm9.713 5.164l1.754 5.738a1 1 0 0 1-.664 1.249l-5.738 1.754a1 1 0 0 1-1.248-.664l-1.755-5.738a1 1 0 0 1 .664-1.249l5.738-1.754a1 1 0 0 1 1.249.664zm9.712 5.164l1.754 5.738a1 1 0 0 1-.664 1.249l-5.737 1.754a1 1 0 0 1-1.249-.664l-1.754-5.738a1 1 0 0 1 .664-1.248l5.737-1.755a1 1 0 0 1 1.25.664zm9.713 5.164l1.754 5.738a1 1 0 0 1-.664 1.249l-5.738 1.754a1 1 0 0 1-1.249-.664l-1.754-5.738a1 1 0 0 1 .664-1.248l5.738-1.755a1 1 0 0 1 1.249.664zm9.712 5.165l1.754 5.737a1 1 0 0 1-.664 1.25l-5.738 1.753a1 1 0 0 1-1.248-.664l-1.754-5.737a1 1 0 0 1 .664-1.25l5.737-1.753a1 1 0 0 1 1.249.664zm9.712 5.164l1.755 5.738a1 1 0 0 1-.664 1.248l-5.738 1.755a1 1 0 0 1-1.249-.664l-1.754-5.738a1 1 0 0 1 .664-1.249l5.738-1.754a1 1 0 0 1 1.248.664zm10.596 5.633l1.754 5.738a1 1 0 0 1-.664 1.249l-5.738 1.754a1 1 0 0 1-1.248-.664l-1.755-5.738a1 1 0 0 1 .664-1.248l5.738-1.754a1 1 0 0 1 1.249.663zm9.712 5.165l1.754 5.737a1 1 0 0 1-.663 1.25l-5.738 1.753a1 1 0 0 1-1.249-.664l-1.754-5.737a1 1 0 0 1 .664-1.25l5.738-1.753a1 1 0 0 1 1.248.664zm9.713 5.164l1.754 5.738a1 1 0 0 1-.664 1.248l-5.738 1.755a1 1 0 0 1-1.249-.664l-1.754-5.738a1 1 0 0 1 .664-1.249l5.738-1.754a1 1 0 0 1 1.249.664zm9.712 5.164l1.754 5.738a1 1 0 0 1-.664 1.249l-5.737 1.754a1 1 0 0 1-1.25-.664l-1.753-5.738a1 1 0 0 1 .664-1.249l5.737-1.754a1 1 0 0 1 1.25.664zm9.712 5.164l1.755 5.738a1 1 0 0 1-.664 1.249l-5.738 1.754a1 1 0 0 1-1.249-.664l-1.754-5.738a1 1 0 0 1 .664-1.248l5.738-1.755a1 1 0 0 1 1.248.664zm9.713 5.164l1.754 5.738a1 1 0 0 1-.664 1.249l-5.738 1.754a1 1 0 0 1-1.248-.664l-1.755-5.738a1 1 0 0 1 .664-1.248l5.738-1.755a1 1 0 0 1 1.249.664zm9.712 5.165l1.755 5.737a1 1 0 0 1-.664 1.25l-5.738 1.753a1 1 0 0 1-1.249-.664l-1.754-5.737a1 1 0 0 1 .664-1.25l5.738-1.753a1 1 0 0 1 1.248.664zm9.713 5.164l1.754 5.738a1 1 0 0 1-.664 1.248l-5.738 1.755a1 1 0 0 1-1.248-.664l-1.755-5.738a1 1 0 0 1 .664-1.249l5.738-1.754a1 1 0 0 1 1.249.664zm9.712 5.164l1.754 5.738a1 1 0 0 1-.664 1.248l-5.737 1.755a1 1 0 0 1-1.249-.664l-1.754-5.738a1 1 0 0 1 .664-1.249l5.738-1.754a1 1 0 0 1 1.248.664zm9.713 5.164l1.754 5.738a1 1 0 0 1-.664 1.249l-5.738 1.754a1 1 0 0 1-1.249-.664l-1.754-5.738a1 1 0 0 1 .664-1.249l5.738-1.754a1 1 0 0 1 1.249.664zm9.712 5.164l1.754 5.738a1 1 0 0 1-.664 1.249l-5.737 1.754a1 1 0 0 1-1.25-.664l-1.753-5.738a1 1 0 0 1 .664-1.248l5.737-1.755a1 1 0 0 1 1.249.664zm9.712 5.165l1.755 5.737a1 1 0 0 1-.664 1.249l-5.738 1.754a1 1 0 0 1-1.249-.664l-1.754-5.738a1 1 0 0 1 .664-1.248l5.738-1.754a1 1 0 0 1 1.248.664zm9.713 5.164l1.754 5.738a1 1 0 0 1-.664 1.248l-5.738 1.754a1 1 0 0 1-1.248-.663l-1.755-5.738a1 1 0 0 1 .664-1.249l5.738-1.754a1 1 0 0 1 1.249.664zm9.712 5.164l1.755 5.738a1 1 0 0 1-.664 1.248l-5.738 1.755a1 1 0 0 1-1.249-.664l-1.754-5.738a1 1 0 0 1 .664-1.249l5.738-1.754a1 1 0 0 1 1.248.664zm9.713 5.164l1.754 5.738a1 1 0 0 1-.664 1.249l-5.738 1.754a1 1 0 0 1-1.248-.664l-1.755-5.738a1 1 0 0 1 .664-1.249l5.738-1.754a1 1 0 0 1 1.249.664zm10.595 5.634l1.754 5.738a1 1 0 0 1-.664 1.248l-5.737 1.754a1 1 0 0 1-1.25-.663l-1.753-5.738a1 1 0 0 1 .664-1.249l5.737-1.754a1 1 0 0 1 1.25.664zm9.713 5.164l1.754 5.738a1 1 0 0 1-.664 1.248l-5.738 1.755a1 1 0 0 1-1.249-.664l-1.754-5.738a1 1 0 0 1 .664-1.249l5.738-1.754a1 1 0 0 1 1.249.664zm9.712 5.164l1.754 5.738a1 1 0 0 1-.664 1.249l-5.738 1.754a1 1 0 0 1-1.248-.664l-1.754-5.738a1 1 0 0 1 .663-1.249l5.738-1.754a1 1 0 0 1 1.249.664zm9.712 5.164l1.755 5.738a1 1 0 0 1-.664 1.249l-5.738 1.754a1 1 0 0 1-1.249-.664l-1.754-5.738a1 1 0 0 1 .664-1.248l5.738-1.755a1 1 0 0 1 1.248.664zm9.713 5.164l1.754 5.738a1 1 0 0 1-.664 1.249l-5.738 1.754a1 1 0 0 1-1.248-.664l-1.755-5.738a1 1 0 0 1 .664-1.248l5.738-1.754a1 1 0 0 1 1.249.663zm9.712 5.165l1.754 5.738a1 1 0 0 1-.663 1.248l-5.738 1.754a1 1 0 0 1-1.249-.664l-1.754-5.737a1 1 0 0 1 .664-1.249l5.738-1.754a1 1 0 0 1 1.248.664zm9.713 5.164l1.754 5.738a1 1 0 0 1-.664 1.248l-5.738 1.755a1 1 0 0 1-1.249-.664l-1.754-5.738a1 1 0 0 1 .664-1.249l5.738-1.754a1 1 0 0 1 1.249.664zm9.712 5.164l1.754 5.738a1 1 0 0 1-.664 1.249l-5.737 1.754a1 1 0 0 1-1.25-.664l-1.753-5.738a1 1 0 0 1 .664-1.249l5.737-1.754a1 1 0 0 1 1.25.664zm9.712 5.164l1.755 5.738a1 1 0 0 1-.664 1.249l-5.738 1.754a1 1 0 0 1-1.249-.664l-1.754-5.738a1 1 0 0 1 .664-1.248l5.738-1.755a1 1 0 0 1 1.248.664zm9.713 5.164l1.754 5.738a1 1 0 0 1-.664 1.249l-5.738 1.754a1 1 0 0 1-1.248-.664l-1.755-5.738a1 1 0 0 1 .664-1.248l5.738-1.755a1 1 0 0 1 1.249.664zm9.712 5.165l1.755 5.737a1 1 0 0 1-.664 1.25l-5.738 1.753a1 1 0 0 1-1.249-.664l-1.754-5.737a1 1 0 0 1 .664-1.25l5.738-1.753a1 1 0 0 1 1.248.664zm9.713 5.164l1.754 5.738a1 1 0 0 1-.664 1.248l-5.738 1.755a1 1 0 0 1-1.248-.664l-1.755-5.738a1 1 0 0 1 .664-1.249l5.738-1.754a1 1 0 0 1 1.249.664zm9.712 5.164l1.754 5.738a1 1 0 0 1-.664 1.248l-5.737 1.755a1 1 0 0 1-1.249-.664l-1.754-5.738a1 1 0 0 1 .664-1.249l5.738-1.754a1 1 0 0 1 1.248.664zm9.713 5.164l1.754 5.738a1 1 0 0 1-.664 1.249l-5.738 1.754a1 1 0 0 1-1.249-.664l-1.754-5.738a1 1 0 0 1 .664-1.249l5.738-1.754a1 1 0 0 1 1.249.664zm10.595 5.634l1.754 5.738a1 1 0 0 1-.664 1.248l-5.738 1.755a1 1 0 0 1-1.248-.664l-1.754-5.738a1 1 0 0 1 .663-1.249l5.738-1.754a1 1 0 0 1 1.249.664zm9.712 5.164l1.755 5.738a1 1 0 0 1-.664 1.249l-5.738 1.754a1 1 0 0 1-1.249-.664l-1.754-5.738a1 1 0 0 1 .664-1.249l5.738-1.754a1 1 0 0 1 1.248.664zm9.713 5.164l1.754 5.738a1 1 0 0 1-.664 1.249l-5.738 1.754a1 1 0 0 1-1.248-.664l-1.755-5.738a1 1 0 0 1 .664-1.248l5.738-1.755a1 1 0 0 1 1.249.664zm9.712 5.164l1.754 5.738a1 1 0 0 1-.663 1.249l-5.738 1.754a1 1 0 0 1-1.249-.664l-1.754-5.738a1 1 0 0 1 .664-1.248l5.738-1.755a1 1 0 0 1 1.248.664zM165.431 72.59l1.954 5.674a1 1 0 0 1-.62 1.27l-5.673 1.954a1 1 0 0 1-1.271-.62l-1.954-5.673a1 1 0 0 1 .62-1.271l5.673-1.954a1 1 0 0 1 1.271.62zm9.579 4.672l1.953 5.673a1 1 0 0 1-.62 1.271l-5.673 1.954a1 1 0 0 1-1.271-.62l-1.953-5.673a1 1 0 0 1 .62-1.271l5.673-1.954a1 1 0 0 1 1.27.62zm9.886 4.822l1.954 5.673a1 1 0 0 1-.62 1.271l-5.673 1.954a1 1 0 0 1-1.271-.62l-1.954-5.673a1 1 0 0 1 .62-1.271l5.673-1.954a1 1 0 0 1 1.271.62zm10.786 5.26l1.953 5.674a1 1 0 0 1-.62 1.27l-5.673 1.954a1 1 0 0 1-1.27-.62l-1.954-5.673a1 1 0 0 1 .62-1.27l5.673-1.954a1 1 0 0 1 1.27.62zm9.887 4.823l1.953 5.673a1 1 0 0 1-.62 1.27l-5.673 1.954a1 1 0 0 1-1.271-.62l-1.953-5.673a1 1 0 0 1 .62-1.27l5.673-1.954a1 1 0 0 1 1.27.62zm9.886 4.822l1.954 5.673a1 1 0 0 1-.62 1.271l-5.673 1.953a1 1 0 0 1-1.271-.62l-1.954-5.673a1 1 0 0 1 .62-1.27l5.673-1.954a1 1 0 0 1 1.271.62zm9.887 4.822l1.954 5.673a1 1 0 0 1-.62 1.271l-5.674 1.953a1 1 0 0 1-1.27-.62l-1.954-5.673a1 1 0 0 1 .62-1.27l5.673-1.954a1 1 0 0 1 1.271.62zm9.887 4.822l1.953 5.673a1 1 0 0 1-.62 1.271l-5.673 1.954a1 1 0 0 1-1.27-.62l-1.954-5.673a1 1 0 0 1 .62-1.272l5.673-1.953a1 1 0 0 1 1.27.62zm9.887 4.822l1.953 5.673a1 1 0 0 1-.62 1.271l-5.673 1.954a1 1 0 0 1-1.271-.62l-1.954-5.673a1 1 0 0 1 .62-1.271l5.674-1.954a1 1 0 0 1 1.27.62zm9.886 4.822l1.954 5.673a1 1 0 0 1-.62 1.271l-5.673 1.954a1 1 0 0 1-1.271-.62l-1.954-5.673a1 1 0 0 1 .62-1.271l5.673-1.954a1 1 0 0 1 1.271.62zm9.887 4.822l1.953 5.673a1 1 0 0 1-.62 1.271l-5.673 1.954a1 1 0 0 1-1.27-.62l-1.954-5.673a1 1 0 0 1 .62-1.271l5.673-1.954a1 1 0 0 1 1.271.62zm9.887 4.822l1.953 5.673a1 1 0 0 1-.62 1.271l-5.673 1.954a1 1 0 0 1-1.27-.62l-1.954-5.673a1 1 0 0 1 .62-1.271l5.673-1.954a1 1 0 0 1 1.27.62zm9.887 4.822l1.953 5.673a1 1 0 0 1-.62 1.272l-5.673 1.953a1 1 0 0 1-1.271-.62l-1.954-5.673a1 1 0 0 1 .62-1.271l5.673-1.954a1 1 0 0 1 1.272.62zm9.886 4.822l1.954 5.674a1 1 0 0 1-.62 1.27l-5.673 1.954a1 1 0 0 1-1.271-.62l-1.954-5.673a1 1 0 0 1 .62-1.271l5.673-1.953a1 1 0 0 1 1.271.62zm9.887 4.823l1.953 5.673a1 1 0 0 1-.62 1.27l-5.673 1.954a1 1 0 0 1-1.27-.62l-1.954-5.673a1 1 0 0 1 .62-1.271l5.673-1.953a1 1 0 0 1 1.271.62zm9.887 4.822l1.953 5.673a1 1 0 0 1-.62 1.27l-5.673 1.954a1 1 0 0 1-1.271-.62l-1.953-5.673a1 1 0 0 1 .62-1.27l5.673-1.954a1 1 0 0 1 1.27.62zm9.886 4.822l1.954 5.673a1 1 0 0 1-.62 1.27l-5.673 1.954a1 1 0 0 1-1.271-.62l-1.954-5.673a1 1 0 0 1 .62-1.27l5.673-1.954a1 1 0 0 1 1.271.62zm10.786 5.26l1.953 5.673a1 1 0 0 1-.62 1.271l-5.673 1.954a1 1 0 0 1-1.27-.62l-1.954-5.673a1 1 0 0 1 .62-1.271l5.673-1.954a1 1 0 0 1 1.271.62zm9.887 4.822l1.953 5.673a1 1 0 0 1-.62 1.271l-5.673 1.954a1 1 0 0 1-1.271-.62l-1.953-5.673a1 1 0 0 1 .62-1.271l5.673-1.954a1 1 0 0 1 1.27.62zm9.886 4.822l1.954 5.673a1 1 0 0 1-.62 1.272l-5.673 1.953a1 1 0 0 1-1.271-.62l-1.954-5.673a1 1 0 0 1 .62-1.271l5.673-1.954a1 1 0 0 1 1.271.62zm9.887 4.822l1.954 5.674a1 1 0 0 1-.62 1.27l-5.673 1.954a1 1 0 0 1-1.272-.62l-1.953-5.673a1 1 0 0 1 .62-1.271l5.673-1.954a1 1 0 0 1 1.271.62zm9.887 4.822l1.953 5.674a1 1 0 0 1-.62 1.27l-5.673 1.954a1 1 0 0 1-1.27-.62l-1.954-5.673a1 1 0 0 1 .62-1.271l5.673-1.953a1 1 0 0 1 1.271.62zm9.887 4.823l1.953 5.673a1 1 0 0 1-.62 1.27l-5.673 1.954a1 1 0 0 1-1.271-.62l-1.953-5.673a1 1 0 0 1 .62-1.271l5.673-1.953a1 1 0 0 1 1.27.62zm9.886 4.822l1.954 5.673a1 1 0 0 1-.62 1.27l-5.673 1.954a1 1 0 0 1-1.271-.62l-1.954-5.673a1 1 0 0 1 .62-1.27l5.673-1.954a1 1 0 0 1 1.271.62zm9.887 4.822l1.954 5.673a1 1 0 0 1-.62 1.27l-5.673 1.954a1 1 0 0 1-1.272-.62l-1.953-5.673a1 1 0 0 1 .62-1.27l5.673-1.954a1 1 0 0 1 1.271.62zm9.887 4.822l1.953 5.673a1 1 0 0 1-.62 1.271l-5.673 1.953a1 1 0 0 1-1.27-.62l-1.954-5.673a1 1 0 0 1 .62-1.27l5.673-1.954a1 1 0 0 1 1.27.62zm9.887 4.822l1.953 5.673a1 1 0 0 1-.62 1.271l-5.673 1.954a1 1 0 0 1-1.271-.62l-1.954-5.674a1 1 0 0 1 .62-1.27l5.674-1.954a1 1 0 0 1 1.27.62zm9.886 4.822l1.954 5.673a1 1 0 0 1-.62 1.271l-5.673 1.954a1 1 0 0 1-1.271-.62l-1.954-5.673a1 1 0 0 1 .62-1.272l5.673-1.953a1 1 0 0 1 1.271.62zm9.887 4.822l1.954 5.673a1 1 0 0 1-.62 1.271l-5.674 1.954a1 1 0 0 1-1.27-.62l-1.954-5.673a1 1 0 0 1 .62-1.271l5.673-1.954a1 1 0 0 1 1.271.62zm9.887 4.822l1.953 5.673a1 1 0 0 1-.62 1.271l-5.673 1.954a1 1 0 0 1-1.27-.62l-1.954-5.673a1 1 0 0 1 .62-1.271l5.673-1.954a1 1 0 0 1 1.27.62zm9.887 4.822l1.953 5.673a1 1 0 0 1-.62 1.271l-5.673 1.954a1 1 0 0 1-1.271-.62l-1.954-5.673a1 1 0 0 1 .62-1.271l5.673-1.954a1 1 0 0 1 1.272.62zm9.886 4.822l1.954 5.673a1 1 0 0 1-.62 1.272l-5.673 1.953a1 1 0 0 1-1.271-.62l-1.954-5.673a1 1 0 0 1 .62-1.271l5.673-1.954a1 1 0 0 1 1.271.62zm10.786 5.26l1.953 5.674a1 1 0 0 1-.62 1.271l-5.673 1.953a1 1 0 0 1-1.27-.62l-1.954-5.673a1 1 0 0 1 .62-1.27l5.673-1.954a1 1 0 0 1 1.27.62zm9.887 4.823l1.953 5.673a1 1 0 0 1-.62 1.271l-5.673 1.953a1 1 0 0 1-1.271-.62l-1.954-5.673a1 1 0 0 1 .62-1.27l5.673-1.954a1 1 0 0 1 1.272.62zm9.886 4.822l1.954 5.673a1 1 0 0 1-.62 1.271l-5.673 1.954a1 1 0 0 1-1.271-.62l-1.954-5.674a1 1 0 0 1 .62-1.27l5.673-1.954a1 1 0 0 1 1.271.62zm9.887 4.822l1.953 5.673a1 1 0 0 1-.62 1.271l-5.673 1.954a1 1 0 0 1-1.27-.62l-1.954-5.673a1 1 0 0 1 .62-1.272l5.673-1.953a1 1 0 0 1 1.271.62zm9.887 4.822l1.953 5.673a1 1 0 0 1-.62 1.271l-5.673 1.954a1 1 0 0 1-1.271-.62l-1.953-5.673a1 1 0 0 1 .62-1.271l5.673-1.954a1 1 0 0 1 1.27.62zm9.887 4.822l1.953 5.673a1 1 0 0 1-.62 1.271l-5.673 1.954a1 1 0 0 1-1.271-.62l-1.954-5.673a1 1 0 0 1 .62-1.271l5.673-1.954a1 1 0 0 1 1.272.62zm9.886 4.822l1.954 5.673a1 1 0 0 1-.62 1.271l-5.673 1.954a1 1 0 0 1-1.272-.62l-1.953-5.673a1 1 0 0 1 .62-1.271l5.673-1.954a1 1 0 0 1 1.271.62zm9.887 4.822l1.953 5.673a1 1 0 0 1-.62 1.272l-5.673 1.953a1 1 0 0 1-1.27-.62l-1.954-5.673a1 1 0 0 1 .62-1.271l5.673-1.954a1 1 0 0 1 1.271.62zm9.887 4.822l1.953 5.674a1 1 0 0 1-.62 1.27l-5.673 1.954a1 1 0 0 1-1.271-.62l-1.953-5.673a1 1 0 0 1 .62-1.271l5.673-1.954a1 1 0 0 1 1.27.62zm9.886 4.823l1.954 5.673a1 1 0 0 1-.62 1.27l-5.673 1.954a1 1 0 0 1-1.271-.62l-1.954-5.673a1 1 0 0 1 .62-1.271l5.673-1.953a1 1 0 0 1 1.271.62zm9.887 4.822l1.954 5.673a1 1 0 0 1-.62 1.27l-5.673 1.954a1 1 0 0 1-1.272-.62l-1.953-5.673a1 1 0 0 1 .62-1.27l5.673-1.954a1 1 0 0 1 1.271.62zm9.887 4.822l1.953 5.673a1 1 0 0 1-.62 1.27l-5.673 1.954a1 1 0 0 1-1.27-.62l-1.954-5.673a1 1 0 0 1 .62-1.27l5.673-1.954a1 1 0 0 1 1.27.62zm9.887 4.822l1.953 5.673a1 1 0 0 1-.62 1.271l-5.673 1.953a1 1 0 0 1-1.271-.62l-1.954-5.673a1 1 0 0 1 .62-1.27l5.674-1.954a1 1 0 0 1 1.27.62zm9.886 4.822l1.954 5.673a1 1 0 0 1-.62 1.271l-5.673 1.953a1 1 0 0 1-1.271-.62l-1.954-5.673a1 1 0 0 1 .62-1.27l5.673-1.954a1 1 0 0 1 1.271.62zm10.786 5.26l1.953 5.673a1 1 0 0 1-.62 1.271l-5.673 1.954a1 1 0 0 1-1.27-.62l-1.954-5.673a1 1 0 0 1 .62-1.271l5.673-1.954a1 1 0 0 1 1.27.62z"/>
        <g stroke="#828282" stroke-linecap="round" stroke-width="3">
            <path d="M201.186 25.511c-.035-9.565 3.192-14.348 9.683-14.348 6.49 0 9.935 4.783 10.335 14.348V70.54l17.484-14.116V14.35c0-8.254-3.783-12.381-11.349-12.381-7.566 0-11.333 5.051-11.302 15.153M221.204 36.505l16.304-11.909M221.204 47.505l16.304-11.909M221.204 59.505l16.304-11.909"/>
        </g>
        <path fill="#005CE1" d="M218.696 39.193l2.15 5.601a1 1 0 0 1-.575 1.292l-5.602 2.15a1 1 0 0 1-1.292-.575l-2.15-5.601a1 1 0 0 1 .575-1.292l5.602-2.15a1 1 0 0 1 1.292.575zm9.735 4.334l2.15 5.602a1 1 0 0 1-.575 1.292l-5.601 2.15a1 1 0 0 1-1.292-.575l-2.15-5.602a1 1 0 0 1 .575-1.292l5.601-2.15a1 1 0 0 1 1.292.575zm10.05 4.474l2.15 5.602a1 1 0 0 1-.576 1.292l-5.601 2.15a1 1 0 0 1-1.292-.575l-2.15-5.602a1 1 0 0 1 .575-1.292l5.601-2.15a1 1 0 0 1 1.292.575zm10.962 4.881l2.15 5.602a1 1 0 0 1-.575 1.292l-5.602 2.15a1 1 0 0 1-1.292-.575l-2.15-5.602a1 1 0 0 1 .575-1.292l5.602-2.15a1 1 0 0 1 1.292.575zm10.049 4.474l2.15 5.602a1 1 0 0 1-.575 1.292l-5.602 2.15a1 1 0 0 1-1.292-.575l-2.15-5.602a1 1 0 0 1 .575-1.292l5.602-2.15a1 1 0 0 1 1.292.575zm10.049 4.474l2.15 5.602a1 1 0 0 1-.575 1.292l-5.602 2.15a1 1 0 0 1-1.292-.575l-2.15-5.602a1 1 0 0 1 .575-1.292l5.602-2.15a1 1 0 0 1 1.292.575zm10.049 4.474l2.15 5.602a1 1 0 0 1-.575 1.292l-5.602 2.15a1 1 0 0 1-1.292-.575l-2.15-5.602a1 1 0 0 1 .575-1.292l5.602-2.15a1 1 0 0 1 1.292.575zm10.049 4.475l2.15 5.601a1 1 0 0 1-.575 1.292l-5.602 2.15a1 1 0 0 1-1.292-.575l-2.15-5.602a1 1 0 0 1 .575-1.291l5.602-2.15a1 1 0 0 1 1.292.575zm10.049 4.474l2.15 5.601a1 1 0 0 1-.575 1.292l-5.602 2.15a1 1 0 0 1-1.292-.575l-2.15-5.601a1 1 0 0 1 .575-1.292l5.602-2.15a1 1 0 0 1 1.292.575zm10.049 4.474l2.15 5.601a1 1 0 0 1-.575 1.292l-5.602 2.15a1 1 0 0 1-1.292-.575l-2.15-5.601a1 1 0 0 1 .575-1.292l5.602-2.15a1 1 0 0 1 1.292.575zm10.049 4.474l2.15 5.601a1 1 0 0 1-.575 1.292l-5.602 2.15a1 1 0 0 1-1.292-.575l-2.15-5.601a1 1 0 0 1 .575-1.292l5.602-2.15a1 1 0 0 1 1.292.575zm10.049 4.474l2.15 5.601a1 1 0 0 1-.575 1.292l-5.602 2.15a1 1 0 0 1-1.292-.575l-2.15-5.601a1 1 0 0 1 .575-1.292l5.602-2.15a1 1 0 0 1 1.292.575zm10.049 4.474l2.15 5.602a1 1 0 0 1-.575 1.291l-5.602 2.15a1 1 0 0 1-1.292-.575l-2.15-5.601a1 1 0 0 1 .575-1.292l5.602-2.15a1 1 0 0 1 1.292.575zm10.049 4.474l2.15 5.602a1 1 0 0 1-.575 1.292l-5.602 2.15a1 1 0 0 1-1.292-.575l-2.15-5.602a1 1 0 0 1 .575-1.292l5.602-2.15a1 1 0 0 1 1.292.575zm10.049 4.474l2.15 5.602a1 1 0 0 1-.575 1.292l-5.602 2.15a1 1 0 0 1-1.292-.575l-2.15-5.602a1 1 0 0 1 .575-1.292l5.602-2.15a1 1 0 0 1 1.292.575zm10.049 4.474l2.15 5.602a1 1 0 0 1-.575 1.292l-5.602 2.15a1 1 0 0 1-1.292-.575l-2.15-5.602a1 1 0 0 1 .575-1.292l5.602-2.15a1 1 0 0 1 1.292.575zm10.049 4.474l2.15 5.602a1 1 0 0 1-.575 1.292l-5.602 2.15a1 1 0 0 1-1.292-.575l-2.15-5.602a1 1 0 0 1 .575-1.292l5.602-2.15a1 1 0 0 1 1.292.575zm10.962 4.881l2.15 5.602a1 1 0 0 1-.575 1.292l-5.601 2.15a1 1 0 0 1-1.292-.575l-2.15-5.602a1 1 0 0 1 .575-1.292l5.601-2.15a1 1 0 0 1 1.292.575zm10.05 4.474l2.15 5.602a1 1 0 0 1-.576 1.292l-5.601 2.15a1 1 0 0 1-1.292-.575l-2.15-5.602a1 1 0 0 1 .575-1.292l5.601-2.15a1 1 0 0 1 1.292.575zm10.048 4.474l2.15 5.602a1 1 0 0 1-.575 1.292l-5.601 2.15a1 1 0 0 1-1.292-.575l-2.15-5.602a1 1 0 0 1 .575-1.292l5.601-2.15a1 1 0 0 1 1.292.575zm10.05 4.475l2.15 5.601a1 1 0 0 1-.576 1.292l-5.601 2.15a1 1 0 0 1-1.292-.575l-2.15-5.601a1 1 0 0 1 .575-1.292l5.601-2.15a1 1 0 0 1 1.292.575zm10.048 4.474l2.15 5.601a1 1 0 0 1-.575 1.292l-5.601 2.15a1 1 0 0 1-1.292-.575l-2.15-5.601a1 1 0 0 1 .575-1.292l5.601-2.15a1 1 0 0 1 1.292.575zm10.05 4.474l2.15 5.601a1 1 0 0 1-.576 1.292l-5.601 2.15a1 1 0 0 1-1.292-.575l-2.15-5.601a1 1 0 0 1 .575-1.292l5.601-2.15a1 1 0 0 1 1.292.575zm10.048 4.474l2.15 5.601a1 1 0 0 1-.575 1.292l-5.601 2.15a1 1 0 0 1-1.292-.575l-2.15-5.601a1 1 0 0 1 .575-1.292l5.601-2.15a1 1 0 0 1 1.292.575zm10.05 4.474l2.15 5.601a1 1 0 0 1-.576 1.292l-5.601 2.15a1 1 0 0 1-1.292-.575l-2.15-5.601a1 1 0 0 1 .575-1.292l5.601-2.15a1 1 0 0 1 1.292.575zm10.048 4.474l2.15 5.602a1 1 0 0 1-.575 1.292l-5.601 2.15a1 1 0 0 1-1.292-.575l-2.15-5.602a1 1 0 0 1 .575-1.292l5.601-2.15a1 1 0 0 1 1.292.575zm10.05 4.474l2.15 5.602a1 1 0 0 1-.576 1.292l-5.601 2.15a1 1 0 0 1-1.292-.575l-2.15-5.602a1 1 0 0 1 .575-1.292l5.601-2.15a1 1 0 0 1 1.292.575zm10.048 4.474l2.15 5.602a1 1 0 0 1-.575 1.292l-5.601 2.15a1 1 0 0 1-1.292-.575l-2.15-5.602a1 1 0 0 1 .575-1.292l5.601-2.15a1 1 0 0 1 1.292.575zm10.05 4.474l2.15 5.602a1 1 0 0 1-.576 1.292l-5.601 2.15a1 1 0 0 1-1.292-.575l-2.15-5.602a1 1 0 0 1 .575-1.292l5.601-2.15a1 1 0 0 1 1.292.575zm10.048 4.475l2.15 5.601a1 1 0 0 1-.575 1.292l-5.601 2.15a1 1 0 0 1-1.292-.575l-2.15-5.602a1 1 0 0 1 .575-1.291l5.601-2.15a1 1 0 0 1 1.292.575zm10.05 4.474l2.15 5.601a1 1 0 0 1-.576 1.292l-5.601 2.15a1 1 0 0 1-1.292-.575l-2.15-5.601a1 1 0 0 1 .575-1.292l5.601-2.15a1 1 0 0 1 1.292.575zm10.048 4.474l2.15 5.601a1 1 0 0 1-.575 1.292l-5.601 2.15a1 1 0 0 1-1.292-.575l-2.15-5.601a1 1 0 0 1 .575-1.292l5.601-2.15a1 1 0 0 1 1.292.575zm10.963 4.88l2.15 5.602a1 1 0 0 1-.575 1.292l-5.602 2.15a1 1 0 0 1-1.292-.575l-2.15-5.601a1 1 0 0 1 .575-1.292l5.602-2.15a1 1 0 0 1 1.292.575zm10.049 4.475l2.15 5.601a1 1 0 0 1-.575 1.292l-5.602 2.15a1 1 0 0 1-1.292-.575l-2.15-5.601a1 1 0 0 1 .575-1.292l5.602-2.15a1 1 0 0 1 1.292.575zm10.049 4.474l2.15 5.601a1 1 0 0 1-.575 1.292l-5.602 2.15a1 1 0 0 1-1.292-.575l-2.15-5.601a1 1 0 0 1 .575-1.292l5.602-2.15a1 1 0 0 1 1.292.575zm10.049 4.474l2.15 5.601a1 1 0 0 1-.575 1.292l-5.602 2.15a1 1 0 0 1-1.292-.575l-2.15-5.601a1 1 0 0 1 .575-1.292l5.602-2.15a1 1 0 0 1 1.292.575zm10.049 4.474l2.15 5.601a1 1 0 0 1-.575 1.292l-5.602 2.15a1 1 0 0 1-1.292-.575l-2.15-5.601a1 1 0 0 1 .575-1.292l5.602-2.15a1 1 0 0 1 1.292.575zm10.049 4.474l2.15 5.602a1 1 0 0 1-.575 1.292l-5.602 2.15a1 1 0 0 1-1.292-.575l-2.15-5.602a1 1 0 0 1 .575-1.292l5.602-2.15a1 1 0 0 1 1.292.575zm10.049 4.474l2.15 5.602a1 1 0 0 1-.575 1.292l-5.602 2.15a1 1 0 0 1-1.292-.575l-2.15-5.602a1 1 0 0 1 .575-1.292l5.602-2.15a1 1 0 0 1 1.292.575zm10.049 4.474l2.15 5.602a1 1 0 0 1-.575 1.292l-5.602 2.15a1 1 0 0 1-1.292-.575l-2.15-5.602a1 1 0 0 1 .575-1.292l5.602-2.15a1 1 0 0 1 1.292.575zm10.049 4.474l2.15 5.602a1 1 0 0 1-.575 1.292l-5.602 2.15a1 1 0 0 1-1.292-.575l-2.15-5.602a1 1 0 0 1 .575-1.292l5.602-2.15a1 1 0 0 1 1.292.575zm10.049 4.474l2.15 5.602a1 1 0 0 1-.575 1.292l-5.602 2.15a1 1 0 0 1-1.292-.575l-2.15-5.602a1 1 0 0 1 .575-1.292l5.602-2.15a1 1 0 0 1 1.292.575zm10.049 4.475l2.15 5.601a1 1 0 0 1-.575 1.292l-5.602 2.15a1 1 0 0 1-1.292-.575l-2.15-5.601a1 1 0 0 1 .575-1.292l5.602-2.15a1 1 0 0 1 1.292.575zm10.049 4.474l2.15 5.601a1 1 0 0 1-.575 1.292l-5.602 2.15a1 1 0 0 1-1.292-.575l-2.15-5.601a1 1 0 0 1 .575-1.292l5.602-2.15a1 1 0 0 1 1.292.575zm10.049 4.474l2.15 5.601a1 1 0 0 1-.575 1.292l-5.602 2.15a1 1 0 0 1-1.292-.575l-2.15-5.601a1 1 0 0 1 .575-1.292l5.602-2.15a1 1 0 0 1 1.292.575zM113.705 117.232l1.854 5.706a1 1 0 0 1-.642 1.26l-5.706 1.854a1 1 0 0 1-1.26-.642l-1.855-5.706a1 1 0 0 1 .642-1.26l5.707-1.854a1 1 0 0 1 1.26.642zm9.495 4.838l1.854 5.706a1 1 0 0 1-.642 1.26l-5.706 1.854a1 1 0 0 1-1.26-.642l-1.854-5.706a1 1 0 0 1 .642-1.26l5.706-1.854a1 1 0 0 1 1.26.642zm9.801 4.994l1.854 5.706a1 1 0 0 1-.642 1.26l-5.706 1.854a1 1 0 0 1-1.26-.642l-1.854-5.706a1 1 0 0 1 .642-1.26l5.706-1.854a1 1 0 0 1 1.26.642zm10.692 5.448l1.854 5.706a1 1 0 0 1-.642 1.26l-5.706 1.854a1 1 0 0 1-1.26-.642l-1.854-5.706a1 1 0 0 1 .642-1.26l5.706-1.854a1 1 0 0 1 1.26.642zm9.801 4.994l1.854 5.706a1 1 0 0 1-.642 1.26L149 146.326a1 1 0 0 1-1.26-.642l-1.854-5.706a1 1 0 0 1 .642-1.26l5.706-1.854a1 1 0 0 1 1.26.642zm9.801 4.993l1.855 5.707a1 1 0 0 1-.643 1.26l-5.706 1.854a1 1 0 0 1-1.26-.642l-1.854-5.706a1 1 0 0 1 .642-1.26l5.706-1.855a1 1 0 0 1 1.26.642zm9.801 4.994l1.855 5.707a1 1 0 0 1-.642 1.26l-5.707 1.854a1 1 0 0 1-1.26-.642l-1.854-5.707a1 1 0 0 1 .642-1.26l5.706-1.854a1 1 0 0 1 1.26.642zm9.802 4.994l1.854 5.707a1 1 0 0 1-.642 1.26l-5.707 1.854a1 1 0 0 1-1.26-.642l-1.854-5.707a1 1 0 0 1 .642-1.26l5.706-1.854a1 1 0 0 1 1.26.642zm9.8 4.994l1.855 5.706a1 1 0 0 1-.642 1.26l-5.707 1.855a1 1 0 0 1-1.26-.642l-1.854-5.707a1 1 0 0 1 .642-1.26l5.707-1.854a1 1 0 0 1 1.26.642zm9.802 4.994l1.854 5.706a1 1 0 0 1-.642 1.26l-5.707 1.855a1 1 0 0 1-1.26-.642l-1.854-5.707a1 1 0 0 1 .642-1.26l5.707-1.854a1 1 0 0 1 1.26.642zm9.8 4.994l1.855 5.706a1 1 0 0 1-.642 1.26l-5.707 1.854a1 1 0 0 1-1.26-.642l-1.854-5.706a1 1 0 0 1 .642-1.26l5.707-1.854a1 1 0 0 1 1.26.642zm9.802 4.994l1.854 5.706a1 1 0 0 1-.642 1.26l-5.706 1.854a1 1 0 0 1-1.26-.642l-1.855-5.706a1 1 0 0 1 .642-1.26l5.707-1.854a1 1 0 0 1 1.26.642zm9.8 4.994l1.855 5.706a1 1 0 0 1-.642 1.26l-5.706 1.854a1 1 0 0 1-1.26-.642l-1.855-5.706a1 1 0 0 1 .642-1.26l5.707-1.854a1 1 0 0 1 1.26.642zm9.802 4.994l1.854 5.706a1 1 0 0 1-.642 1.26l-5.706 1.854a1 1 0 0 1-1.26-.642l-1.854-5.706a1 1 0 0 1 .642-1.26l5.706-1.854a1 1 0 0 1 1.26.642zm9.801 4.994l1.854 5.706a1 1 0 0 1-.642 1.26l-5.706 1.854a1 1 0 0 1-1.26-.642l-1.854-5.706a1 1 0 0 1 .642-1.26l5.706-1.855a1 1 0 0 1 1.26.643zm9.801 4.993l1.854 5.707a1 1 0 0 1-.642 1.26l-5.706 1.854a1 1 0 0 1-1.26-.642l-1.854-5.706a1 1 0 0 1 .642-1.26l5.706-1.855a1 1 0 0 1 1.26.642zm9.801 4.994l1.854 5.707a1 1 0 0 1-.642 1.26l-5.706 1.854a1 1 0 0 1-1.26-.642l-1.854-5.707a1 1 0 0 1 .642-1.26l5.706-1.854a1 1 0 0 1 1.26.642zm10.692 5.448l1.854 5.707a1 1 0 0 1-.642 1.26l-5.706 1.854a1 1 0 0 1-1.26-.642l-1.854-5.707a1 1 0 0 1 .642-1.26l5.706-1.854a1 1 0 0 1 1.26.642zm9.801 4.994l1.854 5.706a1 1 0 0 1-.642 1.26l-5.706 1.855a1 1 0 0 1-1.26-.642l-1.854-5.707a1 1 0 0 1 .642-1.26l5.706-1.854a1 1 0 0 1 1.26.642zm9.801 4.994l1.855 5.706a1 1 0 0 1-.643 1.26l-5.706 1.854a1 1 0 0 1-1.26-.642l-1.854-5.706a1 1 0 0 1 .642-1.26l5.706-1.854a1 1 0 0 1 1.26.642zm9.801 4.994l1.855 5.706a1 1 0 0 1-.642 1.26l-5.707 1.854a1 1 0 0 1-1.26-.642l-1.854-5.706a1 1 0 0 1 .642-1.26l5.706-1.854a1 1 0 0 1 1.26.642zm9.802 4.994l1.854 5.706a1 1 0 0 1-.642 1.26l-5.707 1.854a1 1 0 0 1-1.26-.642l-1.854-5.706a1 1 0 0 1 .642-1.26l5.706-1.854a1 1 0 0 1 1.26.642zm9.8 4.994l1.855 5.706a1 1 0 0 1-.642 1.26l-5.707 1.854a1 1 0 0 1-1.26-.642l-1.854-5.706a1 1 0 0 1 .642-1.26l5.707-1.854a1 1 0 0 1 1.26.642zm9.802 4.994l1.854 5.706a1 1 0 0 1-.642 1.26l-5.707 1.854a1 1 0 0 1-1.26-.642l-1.854-5.706a1 1 0 0 1 .642-1.26l5.707-1.854a1 1 0 0 1 1.26.642zm9.8 4.993l1.855 5.707a1 1 0 0 1-.642 1.26l-5.706 1.854a1 1 0 0 1-1.26-.642l-1.855-5.706a1 1 0 0 1 .642-1.26l5.707-1.855a1 1 0 0 1 1.26.642zm9.802 4.994l1.854 5.707a1 1 0 0 1-.642 1.26l-5.706 1.854a1 1 0 0 1-1.26-.642l-1.855-5.707a1 1 0 0 1 .642-1.26l5.707-1.854a1 1 0 0 1 1.26.642zm9.8 4.994l1.855 5.707a1 1 0 0 1-.642 1.26l-5.706 1.854a1 1 0 0 1-1.26-.642l-1.855-5.707a1 1 0 0 1 .643-1.26l5.706-1.854a1 1 0 0 1 1.26.642zm9.802 4.994l1.854 5.706a1 1 0 0 1-.642 1.26l-5.706 1.855a1 1 0 0 1-1.26-.642l-1.854-5.707a1 1 0 0 1 .642-1.26l5.706-1.854a1 1 0 0 1 1.26.642zm9.801 4.994l1.854 5.706a1 1 0 0 1-.642 1.26l-5.706 1.855a1 1 0 0 1-1.26-.642l-1.854-5.707a1 1 0 0 1 .642-1.26l5.706-1.854a1 1 0 0 1 1.26.642zm9.801 4.994l1.854 5.706a1 1 0 0 1-.642 1.26l-5.706 1.854a1 1 0 0 1-1.26-.642l-1.854-5.706a1 1 0 0 1 .642-1.26l5.706-1.854a1 1 0 0 1 1.26.642zm9.801 4.994l1.854 5.706a1 1 0 0 1-.642 1.26l-5.706 1.854a1 1 0 0 1-1.26-.642l-1.854-5.706a1 1 0 0 1 .642-1.26l5.706-1.854a1 1 0 0 1 1.26.642zm9.801 4.994l1.854 5.706a1 1 0 0 1-.642 1.26l-5.706 1.854a1 1 0 0 1-1.26-.642l-1.854-5.706a1 1 0 0 1 .642-1.26l5.706-1.854a1 1 0 0 1 1.26.642zm10.692 5.448l1.854 5.706a1 1 0 0 1-.642 1.26l-5.706 1.854a1 1 0 0 1-1.26-.642l-1.854-5.706a1 1 0 0 1 .642-1.26l5.706-1.854a1 1 0 0 1 1.26.642zm9.801 4.993l1.855 5.707a1 1 0 0 1-.643 1.26l-5.706 1.854a1 1 0 0 1-1.26-.642l-1.854-5.706a1 1 0 0 1 .642-1.26l5.706-1.855a1 1 0 0 1 1.26.642zm9.802 4.994l1.854 5.707a1 1 0 0 1-.642 1.26l-5.707 1.854a1 1 0 0 1-1.26-.642l-1.854-5.706a1 1 0 0 1 .642-1.26l5.706-1.855a1 1 0 0 1 1.26.642zm9.8 4.994l1.855 5.707a1 1 0 0 1-.642 1.26l-5.707 1.854a1 1 0 0 1-1.26-.642l-1.854-5.707a1 1 0 0 1 .642-1.26l5.707-1.854a1 1 0 0 1 1.26.642zm9.802 4.994l1.854 5.707a1 1 0 0 1-.642 1.26l-5.707 1.854a1 1 0 0 1-1.26-.642l-1.854-5.707a1 1 0 0 1 .642-1.26l5.707-1.854a1 1 0 0 1 1.26.642zm9.8 4.994l1.855 5.706a1 1 0 0 1-.642 1.26l-5.707 1.855a1 1 0 0 1-1.26-.642l-1.854-5.707a1 1 0 0 1 .642-1.26l5.707-1.854a1 1 0 0 1 1.26.642zm9.802 4.994l1.854 5.706a1 1 0 0 1-.642 1.26l-5.706 1.854a1 1 0 0 1-1.26-.642l-1.855-5.706a1 1 0 0 1 .642-1.26l5.707-1.854a1 1 0 0 1 1.26.642zm9.8 4.994l1.855 5.706a1 1 0 0 1-.642 1.26l-5.706 1.854a1 1 0 0 1-1.26-.642l-1.855-5.706a1 1 0 0 1 .642-1.26l5.707-1.854a1 1 0 0 1 1.26.642zm9.802 4.994l1.854 5.706a1 1 0 0 1-.642 1.26l-5.706 1.854a1 1 0 0 1-1.26-.642l-1.855-5.706a1 1 0 0 1 .643-1.26l5.706-1.854a1 1 0 0 1 1.26.642zm9.801 4.994l1.854 5.706a1 1 0 0 1-.642 1.26l-5.706 1.854a1 1 0 0 1-1.26-.642l-1.854-5.706a1 1 0 0 1 .642-1.26l5.706-1.854a1 1 0 0 1 1.26.642zm9.801 4.994l1.854 5.706a1 1 0 0 1-.642 1.26l-5.706 1.854a1 1 0 0 1-1.26-.642l-1.854-5.706a1 1 0 0 1 .642-1.26l5.706-1.854a1 1 0 0 1 1.26.642zm9.801 4.993l1.854 5.707a1 1 0 0 1-.642 1.26l-5.706 1.854a1 1 0 0 1-1.26-.642l-1.854-5.706a1 1 0 0 1 .642-1.26l5.706-1.855a1 1 0 0 1 1.26.642zm9.801 4.994l1.854 5.707a1 1 0 0 1-.642 1.26l-5.706 1.854a1 1 0 0 1-1.26-.642l-1.854-5.707a1 1 0 0 1 .642-1.26l5.706-1.854a1 1 0 0 1 1.26.642zm9.801 4.994l1.854 5.707a1 1 0 0 1-.642 1.26l-5.706 1.854a1 1 0 0 1-1.26-.642l-1.854-5.707a1 1 0 0 1 .642-1.26l5.706-1.854a1 1 0 0 1 1.26.642zm10.692 5.448l1.854 5.706a1 1 0 0 1-.642 1.26l-5.706 1.855a1 1 0 0 1-1.26-.642l-1.854-5.707a1 1 0 0 1 .642-1.26l5.706-1.854a1 1 0 0 1 1.26.642zm9.801 4.994l1.855 5.706a1 1 0 0 1-.642 1.26l-5.707 1.855a1 1 0 0 1-1.26-.642l-1.854-5.707a1 1 0 0 1 .642-1.26l5.706-1.854a1 1 0 0 1 1.26.642z"/>
        <path stroke="#000" stroke-linecap="round" stroke-width="4" d="M824.043 309.348c-19.251 49.165-44.684 66.918-76.299 53.26-47.422-20.487-22.26-57.107-39.988-67.095-17.728-9.988-29.5 15.228-17.11 25.123 12.388 9.895 49.41 3.897 56.417-16.282 7.008-20.18-1.715-40.793-24.27-40.793-22.554 0-33.481 11.938-44.87 11.938-11.387 0-16.303-13.202-21.471-8.144-5.168 5.058-12.981 19.626-29.665 20.15-11.123.35-19.708-3.652-25.757-12.006" opacity=".1"/>
        <path stroke="url(#e)" stroke-linecap="round" stroke-width="4" d="M823.043 306.348c-19.251 49.165-44.684 66.918-76.299 53.26-47.422-20.487-22.26-57.107-39.988-67.095-17.728-9.988-29.5 15.228-17.11 25.123 12.388 9.895 49.41 3.897 56.417-16.282 7.008-20.18-1.715-40.793-24.27-40.793-22.554 0-33.481 11.938-44.87 11.938-11.387 0-16.303-13.202-21.471-8.144-5.168 5.058-12.981 19.626-29.665 20.15-11.123.35-19.708-3.652-25.757-12.006" transform="translate(0 1)"/>
        <path fill="#D8D8D8" d="M598.666 275.074c.684-.734 1.21-1.248 1.576-1.54.367-.292.896-.615 1.588-.97-.383-.684-.912-1.062-1.588-1.135-1.06-.114-1.902.786-2.26 1.517-.243.5-.016 1.209.684 2.128z"/>
    </g>
</svg>
