<svg xmlns="http://www.w3.org/2000/svg" xmlns:xlink="http://www.w3.org/1999/xlink" width="93" height="21" viewBox="0 0 93 21">
    <defs>
        <path id="a" d="M54.133 2.505c-.01-.434.028-.742.83-1.294 1.194-.824 3.113.47 4.223 1.4a17.13 17.13 0 0 1 2.236.73c.247-.016.507-.047.779-.092a35.675 35.675 0 0 1 3.152-.843l.04-.014c1.642-.546 2.602-.748 3.769-.571a25.982 25.982 0 0 1 3.658-.065c5.28.287 7.966 1.674 10.408 1.674 1.332 0 1.882-.782 2.887-.82.837-.033 2.21.56 2.555 1.544.317.903-1.757 2.013-3.512 2.044-.702.012-1.676-.342-2.923-1.06-2.814-.656-5.194-.984-7.14-.984-.483 0-.971.028-1.466.083.25.45.405.905.67 1.321.785 1.234.658 3.343.532 4.378-.283 2.336-3.37 3.22-5.851 3.285v.043c3.493.469 6.269.703 8.327.703 3.088 0 6.268-1.857 7.85-1.857 1.584 0 3.513 1.497 3.513 2.368 0 .872-3.838 1.623-4.362.906-.35-.478-1.328-.628-2.933-.45-3.685 1.36-6.735 2.039-9.15 2.039-2.216 0-5.576-.7-10.08-2.101-1.288.799-2.461 1.768-3.236 2.676-1.866 2.189-4.89.233-4.89-1.297 0-.165.01-.308.03-.434-1.57-.223-3.325-.67-5.266-1.339-1.445 1.31-4.545 2.052-9.3 2.23-4.756.176-10.613-.567-17.571-2.23-2.39 1.006-3.894.835-4.514-.51-.93-2.02-1.895 0-3.19.51-1.296.511-1.205-1.83-1.897-2.368-.693-.538-1.305 1.154-2.595 1.154-1.29 0-1-1.154-1.592-1.154-.593 0 0 2.825-.635 3.876-.634 1.052-1.047-.356-1.047-2.019 0-1.662-.634-1.857-1.864-1.857s-1.62 0-1.62 1.154c0 1.155-1.38 0-1.38-1.154C1.577 10.955 0 10.564 0 9.227 0 7.891 2.043 8.05 2.959 7.396c.915-.654 4.187-.577 5.165 0 .977.576 5.069-1.888 6.757-3.966 1.687-2.077 2.096 2.078 3.447 2.078 1.352 0 .925-1.354 1.416-2.078.491-.724 1.374 1.148 2.168 2.078.53.62.8-.073.814-2.078 4.996-1.039 9.896-1.734 14.7-2.087 4.804-.352 8.59.343 11.357 2.087 2.167-.429 3.95-.737 5.35-.925zM6.303 9.114c-.287.322.136.475.344.854.3.544.538 1.253.839 1.06.509-.327-.276-1.914.313-1.914s.952 1.525 1.653 1.235c.7-.29.817-1.8 1.113-1.235.297.564.51 2.523 1.066 2.093.556-.43 1.84-1.384 2.386-1.239.546.145.666.29 1.204.145.538-.145.124.599.706 1.505.583.905 1.175-.033 1.457-1.269.283-1.235 1.048-2.044 1.048-.381s1.15 2.76 1.725 2.144c.574-.616 1.429-1.084 2.69-1.084 1.26 0 1.728-.534 2.229-.679.5-.144.298.217 1.22.427.388.089 2.3-.341 4.72-.427.949-.033 2.72-.112 5.31-.236-.166-.362-.25-.695-.25-1 0-.304.084-.578.25-.823a269.741 269.741 0 0 1-6.445-.394c-1.5-.117-3.754-.328-6.76-.635-.06 1.063-.428 1.594-1.106 1.594-1.017 0-.402-2.105-1.13-1.594-.728.511-.28 1.267-1.214 1.029-.935-.238-1.555-1.19-1.921-.595-.366.595-.754 1.484-1.823 1.16-1.069-.323-2.226-1.459-2.71-.959-.483.5-1.586 2.072-1.8 1.405C11.2 8.634 9.963 7.79 9.34 8.29c-.624.5-2.339.037-3.037.824z"/>
        <path id="b" d="M21.912 13.478c-2.39 1.006-3.894.835-4.514-.51-.93-2.02-1.895 0-3.19.51-1.296.511-1.205-1.83-1.897-2.368-.693-.538-1.305 1.154-2.595 1.154-1.29 0-1-1.154-1.592-1.154-.593 0 0 2.825-.635 3.876-.634 1.052-1.047-.356-1.047-2.019 0-1.662-.634-1.857-1.864-1.857s-1.62 0-1.62 1.154c0 1.155-1.38 0-1.38-1.154C1.577 9.955 0 9.564 0 8.227 0 6.891 2.043 7.05 2.959 6.396c.915-.654 4.187-.577 5.165 0 .977.576 5.069-1.888 6.757-3.966 1.687-2.077 2.096 2.078 3.447 2.078 1.352 0 .925-1.354 1.416-2.078.491-.724 1.374 1.148 2.168 2.078.53.62.8-.073.814-2.078 4.996-1.039 9.896-1.734 14.7-2.087 4.804-.352 8.59.343 11.357 2.087 3.855-.763 6.497-1.145 7.927-1.145 1.43 0 3.074.382 4.932 1.145C65.574 1.123 69.3.565 72.82.756c5.28.287 7.966 1.674 10.408 1.674 1.332 0 1.882-.782 2.887-.82.837-.033 2.21.56 2.555 1.544.317.903-1.757 2.013-3.512 2.044-.702.012-1.676-.342-2.923-1.06-2.814-.656-5.194-.984-7.14-.984-1.945 0-3.984.451-6.115 1.354v7.756c3.493.469 6.269.703 8.327.703 3.088 0 6.268-1.857 7.85-1.857 1.584 0 3.513 1.497 3.513 2.368 0 .872-3.838 1.623-4.362.906-.35-.478-1.328-.628-2.933-.45-3.685 1.36-6.735 2.039-9.15 2.039-2.414 0-6.187-.832-11.32-2.495-1.004 1.006-2.547 1.508-4.627 1.508-2.08 0-4.579-.502-7.495-1.508-1.445 1.31-4.545 2.052-9.3 2.23-4.756.176-10.613-.567-17.571-2.23zM6.302 8.114c-.286.322.137.475.345.854.3.544.538 1.253.839 1.06.509-.327-.276-1.914.313-1.914s.952 1.525 1.653 1.235c.7-.29.817-1.8 1.113-1.235.297.564.51 2.523 1.066 2.093.556-.43 1.84-1.384 2.386-1.239.546.145.666.29 1.204.145.538-.145.124.599.706 1.505.583.905 1.175-.033 1.457-1.269.283-1.235 1.048-2.044 1.048-.381s1.15 2.76 1.725 2.144c.574-.616 1.429-1.084 2.69-1.084 1.26 0 1.728-.534 2.229-.679.5-.144.298.217 1.22.427.388.089 2.3-.341 4.72-.427.949-.033 2.72-.112 5.31-.236-.166-.362-.25-.695-.25-1 0-.304.084-.578.25-.823a269.741 269.741 0 0 1-6.445-.394c-1.5-.117-3.754-.328-6.76-.635-.06 1.063-.428 1.594-1.106 1.594-1.017 0-.402-2.105-1.13-1.594-.728.511-.28 1.267-1.214 1.029-.935-.238-1.555-1.19-1.921-.595-.366.595-.754 1.484-1.823 1.16-1.069-.323-2.226-1.459-2.71-.959-.483.5-1.586 2.072-1.8 1.405C11.2 7.634 9.963 6.79 9.34 7.29c-.624.5-2.339.037-3.037.824z"/>
    </defs>
    <g fill="none" fill-rule="evenodd">
        <use fill="#000" fill-opacity=".2" transform="translate(0 2.052)" xlink:href="#a"/>
        <g transform="translate(4 .052)">
            <mask id="c" fill="#fff">
                <use xlink:href="#b"/>
            </mask>
            <use fill="#FFF" xlink:href="#b"/>
            <path fill="#000" d="M44.828 0l11.258.552 2.67 4.235 7.36 6.206-5.21 2.485 2.372 3.817h-9.812c-5.759.588-8.551.147-8.379-1.322.173-1.47-2.747-3.757-8.76-6.86l-1.881-.38c-3.024-.413-2.552-.816 1.416-1.208 3.967-.393 6.956-2.9 8.966-7.525zm7.753 5.001c-.606-.811-1.564-1.217-2.873-1.217-1.963 0-3.08 1.522-3.08 3.86 0 2.336 1.656 4.77 3.08 4.77 1.425 0 3.169-.542 3.169-1.734 0-.794-.099-2.687-.296-5.679z" mask="url(#c)"/>
        </g>
        <path fill="#DDB436" d="M75.228 1.444c-2.432-.865-3.355-.825-5.834 0-2.479.825-4.868 1.411-5.887.498-1.02-.914-3.225-2.59-4.544-1.68-1.32.91-.57 1.155-.944 2.395-.375 1.24-2.361 1.52-2.64 4.156-.28 2.635-.203 4.686 1.226 5.389 1.429.702 2.358 0 2.358.971 0 .972-.944.6-.944 2.13 0 1.53 3.024 3.486 4.89 1.297 1.866-2.188 6.046-4.727 8.545-4.398 2.5.328 7.03-.36 7.377-3.214.126-1.035.253-3.145-.532-4.378-.659-1.035-.639-2.301-3.07-3.166z"/>
    </g>
</svg>
