<svg xmlns="http://www.w3.org/2000/svg" xmlns:xlink="http://www.w3.org/1999/xlink" width="108" height="26" viewBox="0 0 108 26">
    <defs>
        <path id="a" d="M9.718 16.26c-.643-.983-1.248-1.475-1.813-1.475-.847 0-2.106 6.27-2.506 4.293-.4-1.977-1.887.714-3.007-.279s1.12-2.539 1.456-4.014c.336-1.475-1.456-.672-3.27-1.187-1.815-.515 1.12-1.092 2.31-2.61 1.189-1.52-1.604.492-2.531-1.674s.57-3.988 2.035-5.429c1.464-1.441 3.252 3.169 5.12 2.678 1.868-.492-.433-2.195 1.594-3.467 2.028-1.273 2.92 3.711 4.612 3.467 1.693-.245-.454-1.744 0-2.678.455-.934 2.39.934 3.798 1.929s1.969-2.573 6.26-3.633c2.86-.706 4.943-.138 6.247 1.704 3.869-.536 7.398-1.034 10.588-1.493 4.786-.69 5.176 1.001 8.78 1.976 2.402.65 6.31-.08 11.723-2.187C63.39.965 65.854.72 68.51 1.444c2.859-2.783 10.28-.834 13.928 0 3.648.834 8.849 4.215 12.358 3.882 3.509-.333 6.467 1.728 7.732 2.53 1.264.802 0 3.131-1.265 3.131s-3.71-1.905-3.71-1.225c0 .68 1.196 1.225-.348 1.225-1.545 0-3.231-1.92-3.714-3.131-.482-1.21-7.225-1.06-9.267-.802-2.043.258-4.17-.008-5.786-.491 1.677 2.376.844 5.328-1.797 7.254-1.762 1.285-4.428 1.118-8-.5.061.49.018 1.117-.13 1.883 3.513-.415 5.75 1.288 6.307 1.696.542-.633 4.79-.975 7.048-.636.9-1.058 9.422-1.817 12.457-2.443 3.036-.625 3.663-2.14 5.681-2.14 2.019 0-.1.787-.77 1.64-.67.852 2.055 0 3.832 0 1.778 0-.538 2.508-.538 3.58 0 1.07-5.542 1.247-8.205.633-2.662-.615-7.634 1.548-10.1 2.748-2.465 1.2-10.34 1.168-11.818 1.168-1.478 0-1.879.537-6.318 1.02s-16.074-3.388-17.14-3.388c-1.067 0-1.784 1.353-5.149 2.368-3.365 1.014-17.558.234-19.019.234-1.46 0-3.601-3.352-3.601-4.784 0-1.43-4.105 2.635-5.433 3.382-1.328.747-.915-2.313-2.026-2.748-1.11-.436-1.948 1.269-2.98 1.269-.688 0-1.028-.846-1.02-2.539zm-4.97-6.402c.212.21 1.5-1.55 1.707-.572.205.98-.406 2.56.466 2.56.872 0 2.9-2.743 3.675-2.56.773.184-1.207 3.895 0 3.895s3.47-2.137 5.152-2.137c1.681 0 2.309 4.955 3.079 4.6.77-.356 1.94-2.754 3.141-2.754 1.202 0 3.06 2.277 4.458 1.844 1.398-.433 7.998-1.844 9.325-1.844.885 0 1.332-.202 1.34-.605-2.982-.094-4.857-.438-5.623-1.031-1.149-.89-5.396.255-6.373-.692-.977-.947-4.97-2.474-5.227-1.875-.256.6-1.575 1.199-2.155.6-.58-.6-2.306-3.393-3.314-1.697-1.008 1.696-1.269 3.32-1.86 2.508-.59-.812-.757-3.838-1.562-3.572-.804.266-2.378 2.963-3.217 2.161S4.75 7.02 4.75 7.59c0 .57-.212 2.057 0 2.268z"/>
        <path id="b" d="M9.718 16.26c-.643-.983-1.248-1.475-1.813-1.475-.847 0-2.106 6.27-2.506 4.293-.4-1.977-1.887.714-3.007-.279s1.12-2.539 1.456-4.014c.336-1.475-1.456-.672-3.27-1.187-1.815-.515 1.12-1.092 2.31-2.61 1.189-1.52-1.604.492-2.531-1.674s.57-3.988 2.035-5.429c1.464-1.441 3.252 3.169 5.12 2.678 1.868-.492-.433-2.195 1.594-3.467 2.028-1.273 2.92 3.711 4.612 3.467 1.693-.245-.454-1.744 0-2.678.455-.934 2.39.934 3.798 1.929s1.969-2.573 6.26-3.633c2.86-.706 4.943-.138 6.247 1.704 3.869-.536 7.398-1.034 10.588-1.493 4.786-.69 5.176 1.001 8.78 1.976 2.402.65 6.31-.08 11.723-2.187C63.39.965 65.854.72 68.51 1.444c2.859-2.783 10.28-.834 13.928 0 3.648.834 8.849 4.215 12.358 3.882 3.509-.333 6.467 1.728 7.732 2.53 1.264.802 0 3.131-1.265 3.131s-3.71-1.905-3.71-1.225c0 .68 1.196 1.225-.348 1.225-1.545 0-3.231-1.92-3.714-3.131-.482-1.21-7.225-1.06-9.267-.802-2.043.258-4.17-.008-5.786-.491 1.677 2.376.844 5.328-1.797 7.254-2.642 1.927-7.48-.711-7.704.437 3.468.531 5.324 2.234 5.881 2.642.542-.633 4.79-.975 7.048-.636.9-1.058 9.422-1.817 12.457-2.443 3.036-.625 3.663-2.14 5.681-2.14 2.019 0-.1.787-.77 1.64-.67.852 2.055 0 3.832 0 1.778 0-.538 2.508-.538 3.58 0 1.07-5.542 1.247-8.205.633-2.662-.615-7.634 1.548-10.1 2.748-2.465 1.2-10.34 1.168-11.818 1.168-1.478 0-1.879.537-6.318 1.02s-16.074-3.388-17.14-3.388c-1.067 0-1.784 1.353-5.149 2.368-3.365 1.014-17.558.234-19.019.234-1.46 0-3.601-3.352-3.601-4.784 0-1.43-4.105 2.635-5.433 3.382-1.328.747-.915-2.313-2.026-2.748-1.11-.436-1.948 1.269-2.98 1.269-.688 0-1.028-.846-1.02-2.539zm-4.97-6.402c.212.21 1.5-1.55 1.707-.572.205.98-.406 2.56.466 2.56.872 0 2.9-2.743 3.675-2.56.773.184-1.207 3.895 0 3.895s3.47-2.137 5.152-2.137c1.681 0 2.309 4.955 3.079 4.6.77-.356 1.94-2.754 3.141-2.754 1.202 0 3.06 2.277 4.458 1.844 1.398-.433 7.998-1.844 9.325-1.844.885 0 1.332-.202 1.34-.605-2.982-.094-4.857-.438-5.623-1.031-1.149-.89-5.396.255-6.373-.692-.977-.947-4.97-2.474-5.227-1.875-.256.6-1.575 1.199-2.155.6-.58-.6-2.306-3.393-3.314-1.697-1.008 1.696-1.269 3.32-1.86 2.508-.59-.812-.757-3.838-1.562-3.572-.804.266-2.378 2.963-3.217 2.161S4.75 7.02 4.75 7.59c0 .57-.212 2.057 0 2.268z"/>
    </defs>
    <g fill="none" fill-rule="evenodd">
        <use fill="#000" fill-opacity=".2" transform="translate(0 3)" xlink:href="#a"/>
        <g transform="translate(4)">
            <mask id="c" fill="#fff">
                <use xlink:href="#b"/>
            </mask>
            <use fill="#FFF" xlink:href="#b"/>
            <path fill="#F0F0F0" d="M50.326 10.71c2.124.493 3.644.622 4.56.389 1.579-.403 3.614-.57 6.107-.5a.58.58 0 0 0 .587-.474.431.431 0 0 0-.411-.51c-2.688-.082-4.865.09-6.531.515-.775.197-2.097.078-3.969-.357a.565.565 0 0 0-.657.352.442.442 0 0 0 .314.585z" mask="url(#c)"/>
            <path fill="#E00D15" d="M45.179 22.508c.483-2.441-1.254-6.019-5.213-10.733.345-2.303.993-4.214 1.946-5.731.954-1.518 2.39-2.991 4.311-4.421l3.789 1.94c-1.01 2.594-1.566 4.928-1.67 7-.103 2.07.176 5.279.84 9.623-3.152 3.988-4.487 4.762-4.003 2.322zM75.294 4.813c-1.947-.443-3.352-.487-5.124 1.321-1.771 1.808-1.978 6.9 0 7.958 1.979 1.059 5.452.855 7.21 0s3.23-2.965 2.646-5.295c-.391-1.557-2.785-3.541-4.732-3.984z" mask="url(#c)"/>
        </g>
    </g>
</svg>
