<svg xmlns="http://www.w3.org/2000/svg" width="808" height="11" viewBox="0 0 808 11">
    <path fill="#E0B90D" fill-rule="evenodd" d="M5.95.293l4.242 4.243a1 1 0 0 1 0 1.414L5.95 10.192a1 1 0 0 1-1.414 0L.293 5.95a1 1 0 0 1 0-1.414L4.536.293a1 1 0 0 1 1.414 0zm10.657 0l4.242 4.243a1 1 0 0 1 0 1.414l-4.242 4.242a1 1 0 0 1-1.415 0L10.95 5.95a1 1 0 0 1 0-1.414L15.192.293a1 1 0 0 1 1.415 0zm11 0l4.242 4.243a1 1 0 0 1 0 1.414l-4.242 4.242a1 1 0 0 1-1.415 0L21.95 5.95a1 1 0 0 1 0-1.414L26.192.293a1 1 0 0 1 1.415 0zm12 0l4.242 4.243a1 1 0 0 1 0 1.414l-4.242 4.242a1 1 0 0 1-1.415 0L33.95 5.95a1 1 0 0 1 0-1.414L38.192.293a1 1 0 0 1 1.415 0zm11 0l4.242 4.243a1 1 0 0 1 0 1.414l-4.242 4.242a1 1 0 0 1-1.415 0L44.95 5.95a1 1 0 0 1 0-1.414L49.192.293a1 1 0 0 1 1.415 0zm11 0l4.242 4.243a1 1 0 0 1 0 1.414l-4.242 4.242a1 1 0 0 1-1.415 0L55.95 5.95a1 1 0 0 1 0-1.414L60.192.293a1 1 0 0 1 1.415 0zm11 0l4.242 4.243a1 1 0 0 1 0 1.414l-4.242 4.242a1 1 0 0 1-1.415 0L66.95 5.95a1 1 0 0 1 0-1.414L71.192.293a1 1 0 0 1 1.415 0zm11 0l4.242 4.243a1 1 0 0 1 0 1.414l-4.242 4.242a1 1 0 0 1-1.415 0L77.95 5.95a1 1 0 0 1 0-1.414L82.192.293a1 1 0 0 1 1.415 0zm11 0l4.242 4.243a1 1 0 0 1 0 1.414l-4.242 4.242a1 1 0 0 1-1.415 0L88.95 5.95a1 1 0 0 1 0-1.414L93.192.293a1 1 0 0 1 1.415 0zm11 0l4.242 4.243a1 1 0 0 1 0 1.414l-4.242 4.242a1 1 0 0 1-1.415 0L99.95 5.95a1 1 0 0 1 0-1.414l4.242-4.243a1 1 0 0 1 1.415 0zm11 0l4.242 4.243a1 1 0 0 1 0 1.414l-4.242 4.242a1 1 0 0 1-1.415 0L110.95 5.95a1 1 0 0 1 0-1.414l4.242-4.243a1 1 0 0 1 1.415 0zm11 0l4.242 4.243a1 1 0 0 1 0 1.414l-4.242 4.242a1 1 0 0 1-1.415 0L121.95 5.95a1 1 0 0 1 0-1.414l4.242-4.243a1 1 0 0 1 1.415 0zm11 0l4.242 4.243a1 1 0 0 1 0 1.414l-4.242 4.242a1 1 0 0 1-1.415 0L132.95 5.95a1 1 0 0 1 0-1.414l4.242-4.243a1 1 0 0 1 1.415 0zm11 0l4.242 4.243a1 1 0 0 1 0 1.414l-4.242 4.242a1 1 0 0 1-1.415 0L143.95 5.95a1 1 0 0 1 0-1.414l4.242-4.243a1 1 0 0 1 1.415 0zm11 0l4.242 4.243a1 1 0 0 1 0 1.414l-4.242 4.242a1 1 0 0 1-1.415 0L154.95 5.95a1 1 0 0 1 0-1.414l4.242-4.243a1 1 0 0 1 1.415 0zm11 0l4.242 4.243a1 1 0 0 1 0 1.414l-4.242 4.242a1 1 0 0 1-1.415 0L165.95 5.95a1 1 0 0 1 0-1.414l4.242-4.243a1 1 0 0 1 1.415 0zm11 0l4.242 4.243a1 1 0 0 1 0 1.414l-4.242 4.242a1 1 0 0 1-1.415 0L176.95 5.95a1 1 0 0 1 0-1.414l4.242-4.243a1 1 0 0 1 1.415 0zm12 0l4.242 4.243a1 1 0 0 1 0 1.414l-4.242 4.242a1 1 0 0 1-1.415 0L188.95 5.95a1 1 0 0 1 0-1.414l4.242-4.243a1 1 0 0 1 1.415 0zm11 0l4.242 4.243a1 1 0 0 1 0 1.414l-4.242 4.242a1 1 0 0 1-1.415 0L199.95 5.95a1 1 0 0 1 0-1.414l4.242-4.243a1 1 0 0 1 1.415 0zm11 0l4.242 4.243a1 1 0 0 1 0 1.414l-4.242 4.242a1 1 0 0 1-1.415 0L210.95 5.95a1 1 0 0 1 0-1.414l4.242-4.243a1 1 0 0 1 1.415 0zm11 0l4.242 4.243a1 1 0 0 1 0 1.414l-4.242 4.242a1 1 0 0 1-1.415 0L221.95 5.95a1 1 0 0 1 0-1.414l4.242-4.243a1 1 0 0 1 1.415 0zm11 0l4.242 4.243a1 1 0 0 1 0 1.414l-4.242 4.242a1 1 0 0 1-1.415 0L232.95 5.95a1 1 0 0 1 0-1.414l4.242-4.243a1 1 0 0 1 1.415 0zm11 0l4.242 4.243a1 1 0 0 1 0 1.414l-4.242 4.242a1 1 0 0 1-1.415 0L243.95 5.95a1 1 0 0 1 0-1.414l4.242-4.243a1 1 0 0 1 1.415 0zm11 0l4.242 4.243a1 1 0 0 1 0 1.414l-4.242 4.242a1 1 0 0 1-1.415 0L254.95 5.95a1 1 0 0 1 0-1.414l4.242-4.243a1 1 0 0 1 1.415 0zm11 0l4.242 4.243a1 1 0 0 1 0 1.414l-4.242 4.242a1 1 0 0 1-1.415 0L265.95 5.95a1 1 0 0 1 0-1.414l4.242-4.243a1 1 0 0 1 1.415 0zm11 0l4.242 4.243a1 1 0 0 1 0 1.414l-4.242 4.242a1 1 0 0 1-1.415 0L276.95 5.95a1 1 0 0 1 0-1.414l4.242-4.243a1 1 0 0 1 1.415 0zm11 0l4.242 4.243a1 1 0 0 1 0 1.414l-4.242 4.242a1 1 0 0 1-1.415 0L287.95 5.95a1 1 0 0 1 0-1.414l4.242-4.243a1 1 0 0 1 1.415 0zm11 0l4.242 4.243a1 1 0 0 1 0 1.414l-4.242 4.242a1 1 0 0 1-1.415 0L298.95 5.95a1 1 0 0 1 0-1.414l4.242-4.243a1 1 0 0 1 1.415 0zm11 0l4.242 4.243a1 1 0 0 1 0 1.414l-4.242 4.242a1 1 0 0 1-1.415 0L309.95 5.95a1 1 0 0 1 0-1.414l4.242-4.243a1 1 0 0 1 1.415 0zm11 0l4.242 4.243a1 1 0 0 1 0 1.414l-4.242 4.242a1 1 0 0 1-1.415 0L320.95 5.95a1 1 0 0 1 0-1.414l4.242-4.243a1 1 0 0 1 1.415 0zm11 0l4.242 4.243a1 1 0 0 1 0 1.414l-4.242 4.242a1 1 0 0 1-1.415 0L331.95 5.95a1 1 0 0 1 0-1.414l4.242-4.243a1 1 0 0 1 1.415 0zm11 0l4.242 4.243a1 1 0 0 1 0 1.414l-4.242 4.242a1 1 0 0 1-1.415 0L342.95 5.95a1 1 0 0 1 0-1.414l4.242-4.243a1 1 0 0 1 1.415 0zm12 0l4.242 4.243a1 1 0 0 1 0 1.414l-4.242 4.242a1 1 0 0 1-1.415 0L354.95 5.95a1 1 0 0 1 0-1.414l4.242-4.243a1 1 0 0 1 1.415 0zm11 0l4.242 4.243a1 1 0 0 1 0 1.414l-4.242 4.242a1 1 0 0 1-1.415 0L365.95 5.95a1 1 0 0 1 0-1.414l4.242-4.243a1 1 0 0 1 1.415 0zm11 0l4.242 4.243a1 1 0 0 1 0 1.414l-4.242 4.242a1 1 0 0 1-1.415 0L376.95 5.95a1 1 0 0 1 0-1.414l4.242-4.243a1 1 0 0 1 1.415 0zm11 0l4.242 4.243a1 1 0 0 1 0 1.414l-4.242 4.242a1 1 0 0 1-1.415 0L387.95 5.95a1 1 0 0 1 0-1.414l4.242-4.243a1 1 0 0 1 1.415 0zm11 0l4.242 4.243a1 1 0 0 1 0 1.414l-4.242 4.242a1 1 0 0 1-1.415 0L398.95 5.95a1 1 0 0 1 0-1.414l4.242-4.243a1 1 0 0 1 1.415 0zm11 0l4.242 4.243a1 1 0 0 1 0 1.414l-4.242 4.242a1 1 0 0 1-1.415 0L409.95 5.95a1 1 0 0 1 0-1.414l4.242-4.243a1 1 0 0 1 1.415 0zm11 0l4.242 4.243a1 1 0 0 1 0 1.414l-4.242 4.242a1 1 0 0 1-1.415 0L420.95 5.95a1 1 0 0 1 0-1.414l4.242-4.243a1 1 0 0 1 1.415 0zm11 0l4.242 4.243a1 1 0 0 1 0 1.414l-4.242 4.242a1 1 0 0 1-1.415 0L431.95 5.95a1 1 0 0 1 0-1.414l4.242-4.243a1 1 0 0 1 1.415 0zm11 0l4.242 4.243a1 1 0 0 1 0 1.414l-4.242 4.242a1 1 0 0 1-1.415 0L442.95 5.95a1 1 0 0 1 0-1.414l4.242-4.243a1 1 0 0 1 1.415 0zm11 0l4.242 4.243a1 1 0 0 1 0 1.414l-4.242 4.242a1 1 0 0 1-1.415 0L453.95 5.95a1 1 0 0 1 0-1.414l4.242-4.243a1 1 0 0 1 1.415 0zm11 0l4.242 4.243a1 1 0 0 1 0 1.414l-4.242 4.242a1 1 0 0 1-1.415 0L464.95 5.95a1 1 0 0 1 0-1.414l4.242-4.243a1 1 0 0 1 1.415 0zm11 0l4.242 4.243a1 1 0 0 1 0 1.414l-4.242 4.242a1 1 0 0 1-1.415 0L475.95 5.95a1 1 0 0 1 0-1.414l4.242-4.243a1 1 0 0 1 1.415 0zm11 0l4.242 4.243a1 1 0 0 1 0 1.414l-4.242 4.242a1 1 0 0 1-1.415 0L486.95 5.95a1 1 0 0 1 0-1.414l4.242-4.243a1 1 0 0 1 1.415 0zm11 0l4.242 4.243a1 1 0 0 1 0 1.414l-4.242 4.242a1 1 0 0 1-1.415 0L497.95 5.95a1 1 0 0 1 0-1.414l4.242-4.243a1 1 0 0 1 1.415 0zm12 0l4.242 4.243a1 1 0 0 1 0 1.414l-4.242 4.242a1 1 0 0 1-1.415 0L509.95 5.95a1 1 0 0 1 0-1.414l4.242-4.243a1 1 0 0 1 1.415 0zm11 0l4.242 4.243a1 1 0 0 1 0 1.414l-4.242 4.242a1 1 0 0 1-1.415 0L520.95 5.95a1 1 0 0 1 0-1.414l4.242-4.243a1 1 0 0 1 1.415 0zm11 0l4.242 4.243a1 1 0 0 1 0 1.414l-4.242 4.242a1 1 0 0 1-1.415 0L531.95 5.95a1 1 0 0 1 0-1.414l4.242-4.243a1 1 0 0 1 1.415 0zm11 0l4.242 4.243a1 1 0 0 1 0 1.414l-4.242 4.242a1 1 0 0 1-1.415 0L542.95 5.95a1 1 0 0 1 0-1.414l4.242-4.243a1 1 0 0 1 1.415 0zm11 0l4.242 4.243a1 1 0 0 1 0 1.414l-4.242 4.242a1 1 0 0 1-1.415 0L553.95 5.95a1 1 0 0 1 0-1.414l4.242-4.243a1 1 0 0 1 1.415 0zm11 0l4.242 4.243a1 1 0 0 1 0 1.414l-4.242 4.242a1 1 0 0 1-1.415 0L564.95 5.95a1 1 0 0 1 0-1.414l4.242-4.243a1 1 0 0 1 1.415 0zm11 0l4.242 4.243a1 1 0 0 1 0 1.414l-4.242 4.242a1 1 0 0 1-1.415 0L575.95 5.95a1 1 0 0 1 0-1.414l4.242-4.243a1 1 0 0 1 1.415 0zm11 0l4.242 4.243a1 1 0 0 1 0 1.414l-4.242 4.242a1 1 0 0 1-1.415 0L586.95 5.95a1 1 0 0 1 0-1.414l4.242-4.243a1 1 0 0 1 1.415 0zm11 0l4.242 4.243a1 1 0 0 1 0 1.414l-4.242 4.242a1 1 0 0 1-1.415 0L597.95 5.95a1 1 0 0 1 0-1.414l4.242-4.243a1 1 0 0 1 1.415 0zm11 0l4.242 4.243a1 1 0 0 1 0 1.414l-4.242 4.242a1 1 0 0 1-1.415 0L608.95 5.95a1 1 0 0 1 0-1.414l4.242-4.243a1 1 0 0 1 1.415 0zm11 0l4.242 4.243a1 1 0 0 1 0 1.414l-4.242 4.242a1 1 0 0 1-1.415 0L619.95 5.95a1 1 0 0 1 0-1.414l4.242-4.243a1 1 0 0 1 1.415 0zm11 0l4.242 4.243a1 1 0 0 1 0 1.414l-4.242 4.242a1 1 0 0 1-1.415 0L630.95 5.95a1 1 0 0 1 0-1.414l4.242-4.243a1 1 0 0 1 1.415 0zm11 0l4.242 4.243a1 1 0 0 1 0 1.414l-4.242 4.242a1 1 0 0 1-1.415 0L641.95 5.95a1 1 0 0 1 0-1.414l4.242-4.243a1 1 0 0 1 1.415 0zm11 0l4.242 4.243a1 1 0 0 1 0 1.414l-4.242 4.242a1 1 0 0 1-1.415 0L652.95 5.95a1 1 0 0 1 0-1.414l4.242-4.243a1 1 0 0 1 1.415 0zm12 0l4.242 4.243a1 1 0 0 1 0 1.414l-4.242 4.242a1 1 0 0 1-1.415 0L664.95 5.95a1 1 0 0 1 0-1.414l4.242-4.243a1 1 0 0 1 1.415 0zm11 0l4.242 4.243a1 1 0 0 1 0 1.414l-4.242 4.242a1 1 0 0 1-1.415 0L675.95 5.95a1 1 0 0 1 0-1.414l4.242-4.243a1 1 0 0 1 1.415 0zm11 0l4.242 4.243a1 1 0 0 1 0 1.414l-4.242 4.242a1 1 0 0 1-1.415 0L686.95 5.95a1 1 0 0 1 0-1.414l4.242-4.243a1 1 0 0 1 1.415 0zm11 0l4.242 4.243a1 1 0 0 1 0 1.414l-4.242 4.242a1 1 0 0 1-1.415 0L697.95 5.95a1 1 0 0 1 0-1.414l4.242-4.243a1 1 0 0 1 1.415 0zm11 0l4.242 4.243a1 1 0 0 1 0 1.414l-4.242 4.242a1 1 0 0 1-1.415 0L708.95 5.95a1 1 0 0 1 0-1.414l4.242-4.243a1 1 0 0 1 1.415 0zm11 0l4.242 4.243a1 1 0 0 1 0 1.414l-4.242 4.242a1 1 0 0 1-1.415 0L719.95 5.95a1 1 0 0 1 0-1.414l4.242-4.243a1 1 0 0 1 1.415 0zm11 0l4.242 4.243a1 1 0 0 1 0 1.414l-4.242 4.242a1 1 0 0 1-1.415 0L730.95 5.95a1 1 0 0 1 0-1.414l4.242-4.243a1 1 0 0 1 1.415 0zm11 0l4.242 4.243a1 1 0 0 1 0 1.414l-4.242 4.242a1 1 0 0 1-1.415 0L741.95 5.95a1 1 0 0 1 0-1.414l4.242-4.243a1 1 0 0 1 1.415 0zm11 0l4.242 4.243a1 1 0 0 1 0 1.414l-4.242 4.242a1 1 0 0 1-1.415 0L752.95 5.95a1 1 0 0 1 0-1.414l4.242-4.243a1 1 0 0 1 1.415 0zm11 0l4.242 4.243a1 1 0 0 1 0 1.414l-4.242 4.242a1 1 0 0 1-1.415 0L763.95 5.95a1 1 0 0 1 0-1.414l4.242-4.243a1 1 0 0 1 1.415 0zm11 0l4.242 4.243a1 1 0 0 1 0 1.414l-4.242 4.242a1 1 0 0 1-1.415 0L774.95 5.95a1 1 0 0 1 0-1.414l4.242-4.243a1 1 0 0 1 1.415 0zm11 0l4.242 4.243a1 1 0 0 1 0 1.414l-4.242 4.242a1 1 0 0 1-1.415 0L785.95 5.95a1 1 0 0 1 0-1.414l4.242-4.243a1 1 0 0 1 1.415 0zm11 0l4.242 4.243a1 1 0 0 1 0 1.414l-4.242 4.242a1 1 0 0 1-1.415 0L796.95 5.95a1 1 0 0 1 0-1.414l4.242-4.243a1 1 0 0 1 1.415 0z"/>
</svg>
